<?xml version="1.0" encoding="utf-8"?>
<!-- Generator: Adobe Illustrator 16.0.0, SVG Export Plug-In . SVG Version: 6.00 Build 0)  -->
<!DOCTYPE svg PUBLIC "-//W3C//DTD SVG 1.1//EN" "http://www.w3.org/Graphics/SVG/1.1/DTD/svg11.dtd">
<svg version="1.1" id="Layer_1" xmlns="http://www.w3.org/2000/svg" xmlns:xlink="http://www.w3.org/1999/xlink" x="0px" y="0px"
	 width="40px" height="40px" viewBox="0 0 40 40" enable-background="new 0 0 40 40" xml:space="preserve">
<g>
	<circle fill="#3F3B90" cx="19.56" cy="20.34" r="15"/>
	<g>
		<g>
			<path fill="none" stroke="#FFFFFF" stroke-linecap="round" stroke-miterlimit="10" d="M9.919,19.509l8.875-5.039
				c0,0,0.765-0.479,1.417-0.128l7.216,4.289c0,0,5.311,2.869,1.585,2.869c-0.87,0-19.115,0-19.115,0S7.371,20.934,9.919,19.509z"/>
			<path fill="none" stroke="#FFFFFF" stroke-linecap="round" stroke-miterlimit="10" d="M19.478,13.509
				c0-0.369-0.087-0.776,0.018-1.129c0.06-0.202,0.25-0.34,0.376-0.507c0.093-0.124,0.126-0.144,0.228-0.209l0.04-0.04
				c1.237-0.762,0.821-2.786-0.698-2.974c-1.615-0.199-2.591,1.829-1.424,2.844"/>
		</g>
		<g>
			<path fill="#FFFFFF" d="M13.688,28.164c0,0.029-0.008,0.056-0.026,0.079c-0.018,0.022-0.047,0.042-0.087,0.056
				c-0.042,0.015-0.095,0.026-0.163,0.035c-0.068,0.009-0.154,0.013-0.257,0.013c-0.106,0-0.193-0.004-0.262-0.013
				c-0.069-0.009-0.124-0.021-0.163-0.035c-0.039-0.014-0.068-0.033-0.086-0.056c-0.017-0.023-0.026-0.05-0.026-0.079V25.9h-1.969
				v2.264c0,0.029-0.008,0.056-0.024,0.079c-0.017,0.022-0.045,0.042-0.086,0.056c-0.04,0.015-0.095,0.026-0.163,0.035
				s-0.154,0.013-0.26,0.013c-0.104,0-0.19-0.004-0.259-0.013s-0.124-0.021-0.165-0.035c-0.041-0.014-0.07-0.033-0.087-0.056
				c-0.018-0.023-0.026-0.05-0.026-0.079v-5.291c0-0.028,0.008-0.055,0.026-0.077c0.017-0.023,0.047-0.041,0.087-0.057
				c0.041-0.015,0.096-0.026,0.165-0.034c0.069-0.009,0.155-0.013,0.259-0.013c0.106,0,0.192,0.004,0.26,0.013
				c0.068,0.008,0.123,0.02,0.163,0.034c0.041,0.016,0.069,0.033,0.086,0.057c0.016,0.022,0.024,0.049,0.024,0.077v2.058h1.969
				v-2.058c0-0.028,0.01-0.055,0.026-0.077c0.018-0.023,0.047-0.041,0.086-0.057c0.04-0.015,0.094-0.026,0.163-0.034
				c0.069-0.009,0.156-0.013,0.262-0.013c0.103,0,0.188,0.004,0.257,0.013c0.068,0.008,0.122,0.02,0.163,0.034
				c0.04,0.016,0.069,0.033,0.087,0.057c0.018,0.022,0.026,0.049,0.026,0.077V28.164z"/>
			<path fill="#FFFFFF" d="M19.15,27.896c0.033,0.104,0.053,0.187,0.061,0.247s-0.002,0.105-0.032,0.136s-0.083,0.049-0.159,0.057
				c-0.076,0.007-0.181,0.011-0.313,0.011c-0.138,0-0.247-0.002-0.324-0.007c-0.077-0.004-0.137-0.013-0.177-0.026
				c-0.041-0.013-0.069-0.03-0.086-0.054c-0.016-0.023-0.029-0.053-0.041-0.09l-0.354-1.126h-1.978l-0.334,1.095
				c-0.01,0.041-0.025,0.075-0.042,0.102c-0.018,0.028-0.046,0.049-0.085,0.065c-0.039,0.016-0.095,0.026-0.167,0.032
				s-0.167,0.009-0.283,0.009c-0.125,0-0.223-0.004-0.293-0.013c-0.07-0.009-0.12-0.029-0.146-0.063
				c-0.027-0.033-0.037-0.08-0.028-0.141s0.028-0.142,0.061-0.242l1.624-4.971c0.017-0.049,0.036-0.088,0.057-0.12
				c0.022-0.029,0.057-0.052,0.104-0.068c0.047-0.016,0.113-0.025,0.197-0.03c0.084-0.005,0.195-0.006,0.334-0.006
				c0.159,0,0.287,0.001,0.382,0.006c0.095,0.005,0.169,0.015,0.222,0.03c0.053,0.017,0.091,0.04,0.114,0.071
				c0.023,0.032,0.043,0.075,0.059,0.131L19.15,27.896z M16.733,23.787h-0.004l-0.745,2.382h1.494L16.733,23.787z"/>
			<path fill="#FFFFFF" d="M24.23,27.922c0,0.066-0.012,0.126-0.032,0.178c-0.022,0.052-0.052,0.096-0.088,0.131
				c-0.037,0.034-0.08,0.059-0.131,0.075c-0.05,0.016-0.101,0.024-0.151,0.024h-0.457c-0.095,0-0.177-0.011-0.245-0.031
				c-0.07-0.02-0.134-0.056-0.192-0.11c-0.058-0.053-0.114-0.126-0.168-0.217c-0.056-0.091-0.115-0.209-0.185-0.353L21.271,25
				c-0.077-0.156-0.153-0.324-0.232-0.505c-0.079-0.181-0.149-0.355-0.212-0.525h-0.008c0.011,0.207,0.02,0.415,0.024,0.62
				c0.006,0.207,0.008,0.42,0.008,0.639v2.933c0,0.028-0.007,0.054-0.022,0.077s-0.041,0.043-0.078,0.059
				c-0.036,0.016-0.086,0.028-0.148,0.037c-0.062,0.009-0.143,0.013-0.241,0.013c-0.095,0-0.173-0.004-0.235-0.013
				c-0.063-0.009-0.111-0.021-0.147-0.037c-0.035-0.016-0.059-0.035-0.073-0.059s-0.021-0.049-0.021-0.077v-5.037
				c0-0.136,0.037-0.236,0.112-0.305c0.075-0.066,0.166-0.102,0.274-0.102h0.574c0.104,0,0.19,0.009,0.261,0.027
				c0.07,0.021,0.134,0.051,0.189,0.094s0.107,0.104,0.156,0.18c0.049,0.077,0.1,0.171,0.15,0.283l1.026,2.049
				c0.06,0.124,0.119,0.245,0.177,0.365c0.059,0.121,0.114,0.24,0.17,0.36c0.053,0.119,0.105,0.237,0.158,0.353
				c0.051,0.115,0.101,0.23,0.149,0.346h0.005c-0.008-0.201-0.014-0.411-0.019-0.632c-0.004-0.219-0.006-0.429-0.006-0.628v-2.628
				c0-0.028,0.008-0.055,0.024-0.078c0.016-0.022,0.044-0.042,0.081-0.061c0.038-0.017,0.089-0.029,0.151-0.037
				c0.062-0.007,0.143-0.011,0.239-0.011c0.093,0,0.17,0.004,0.232,0.011c0.062,0.008,0.11,0.021,0.144,0.037
				c0.035,0.019,0.059,0.038,0.071,0.061c0.015,0.023,0.021,0.05,0.021,0.078V27.922z"/>
			<path fill="#FFFFFF" d="M29.603,23.588c0,0.084-0.003,0.156-0.009,0.218c-0.008,0.06-0.018,0.107-0.03,0.144
				c-0.012,0.037-0.026,0.062-0.043,0.076c-0.02,0.014-0.039,0.022-0.063,0.022c-0.036,0-0.094-0.026-0.172-0.078
				c-0.078-0.053-0.184-0.109-0.312-0.17c-0.131-0.061-0.286-0.116-0.467-0.168c-0.18-0.052-0.39-0.078-0.628-0.078
				c-0.256,0-0.486,0.047-0.692,0.141c-0.207,0.094-0.383,0.228-0.529,0.397c-0.146,0.173-0.259,0.379-0.338,0.62
				s-0.118,0.507-0.118,0.8c0,0.319,0.04,0.602,0.121,0.845c0.079,0.245,0.19,0.448,0.335,0.613
				c0.144,0.164,0.317,0.288,0.519,0.372c0.202,0.083,0.426,0.126,0.67,0.126c0.119,0,0.237-0.014,0.354-0.043
				c0.117-0.029,0.226-0.072,0.325-0.13v-1.3h-0.996c-0.049,0-0.087-0.031-0.113-0.097c-0.029-0.065-0.042-0.177-0.042-0.332
				c0-0.08,0.004-0.148,0.011-0.202c0.007-0.055,0.018-0.1,0.031-0.134c0.013-0.032,0.029-0.056,0.048-0.073
				c0.019-0.015,0.041-0.024,0.065-0.024h1.779c0.043,0,0.081,0.01,0.115,0.024c0.034,0.018,0.063,0.04,0.089,0.071
				c0.026,0.032,0.046,0.071,0.061,0.114c0.013,0.046,0.021,0.097,0.021,0.155v2.23c0,0.085-0.016,0.16-0.044,0.227
				c-0.027,0.064-0.087,0.116-0.175,0.153c-0.088,0.038-0.198,0.076-0.327,0.116c-0.13,0.041-0.266,0.075-0.405,0.105
				c-0.141,0.028-0.281,0.051-0.424,0.064c-0.142,0.015-0.285,0.021-0.429,0.021c-0.421,0-0.798-0.064-1.129-0.191
				c-0.333-0.128-0.615-0.314-0.846-0.56c-0.229-0.243-0.406-0.541-0.529-0.892c-0.122-0.351-0.183-0.747-0.183-1.192
				c0-0.458,0.064-0.87,0.195-1.237c0.13-0.364,0.314-0.674,0.553-0.931c0.239-0.255,0.527-0.45,0.865-0.586
				c0.338-0.135,0.715-0.204,1.13-0.204c0.228,0,0.436,0.017,0.623,0.05c0.188,0.034,0.351,0.073,0.49,0.122
				c0.14,0.047,0.256,0.099,0.349,0.153c0.091,0.055,0.155,0.103,0.192,0.143c0.037,0.041,0.062,0.097,0.08,0.171
				C29.595,23.334,29.603,23.444,29.603,23.588z"/>
		</g>
	</g>
</g>
<g>
</g>
</svg>
