<?xml version="1.0" encoding="utf-8"?>
<!-- Generator: Adobe Illustrator 16.0.0, SVG Export Plug-In . SVG Version: 6.00 Build 0)  -->
<!DOCTYPE svg PUBLIC "-//W3C//DTD SVG 1.1//EN" "http://www.w3.org/Graphics/SVG/1.1/DTD/svg11.dtd">
<svg version="1.1" id="Layer_1" xmlns="http://www.w3.org/2000/svg" xmlns:xlink="http://www.w3.org/1999/xlink" x="0px" y="0px"
	 width="100px" height="100px" viewBox="0 0 100 100" enable-background="new 0 0 100 100" xml:space="preserve">
<g>
	<polygon fill="#392DAA" stroke="#392DAA" stroke-linejoin="round" stroke-miterlimit="10" points="86.5,71.956 78.5,70.542 
		78.5,32.733 86.5,31.31 	"/>
	<polygon fill="none" stroke="#392DAA" stroke-linejoin="round" stroke-miterlimit="10" points="90.29,71.959 86.5,71.956 
		86.5,31.31 90.346,31.313 	"/>
	<polygon fill="#392DAA" points="81,49 76.159,49 75.25,42 81,42 	"/>
	<polygon fill="#392DAA" points="81,59 74.995,59 76.159,52 81,52 	"/>
</g>
<g>
	<path fill="#392DAA" d="M18.013,49.957c0-17.629,12.773-31.92,28.529-31.92c0.258,0,0.514,0.014,0.771,0.022l-0.002-0.43
		l-2.716-0.322c-0.348,0-6.083,0.649-6.434,0.673C21.714,19.1,9.179,32.3,9.179,49.928c0,17.033,11.164,30.975,26.486,31.898
		l3.053,0.29l7.328,0.576l0.439-0.817C30.755,81.839,18.013,67.563,18.013,49.957z"/>
	<ellipse fill="none" stroke="#392DAA" stroke-width="3" stroke-miterlimit="10" cx="47.089" cy="49.957" rx="28.529" ry="31.919"/>
	<ellipse fill="none" stroke="#ED48FF" stroke-width="2" stroke-miterlimit="10" cx="47.089" cy="49.957" rx="24.828" ry="27.779"/>
</g>
<g>
	<path fill="#3F3B90" d="M48.555,44.107c-0.009,0.044-0.03,0.083-0.063,0.117c-0.033,0.034-0.085,0.062-0.157,0.083
		c-0.071,0.022-0.162,0.039-0.271,0.05c-0.109,0.011-0.246,0.017-0.411,0.017c-0.16,0-0.293-0.005-0.4-0.017
		s-0.189-0.028-0.248-0.05c-0.058-0.022-0.097-0.05-0.117-0.083c-0.02-0.033-0.023-0.072-0.01-0.117l0.714-3.574
		c0.018-0.103,0.034-0.204,0.047-0.304s0.02-0.201,0.02-0.304c0-0.209-0.039-0.378-0.117-0.508
		c-0.078-0.129-0.217-0.194-0.417-0.194c-0.178,0-0.363,0.058-0.555,0.174s-0.375,0.273-0.551,0.471
		c-0.176,0.198-0.332,0.43-0.468,0.694c-0.136,0.265-0.233,0.547-0.291,0.845l-0.541,2.699c-0.009,0.044-0.03,0.083-0.063,0.117
		c-0.034,0.034-0.086,0.062-0.157,0.083c-0.071,0.022-0.161,0.039-0.271,0.05c-0.109,0.011-0.246,0.017-0.411,0.017
		c-0.161,0-0.293-0.005-0.397-0.017c-0.105-0.011-0.186-0.028-0.244-0.05c-0.058-0.022-0.097-0.05-0.117-0.083
		c-0.02-0.033-0.026-0.072-0.017-0.117l0.708-3.574c0.027-0.103,0.045-0.208,0.057-0.317c0.011-0.109,0.017-0.215,0.017-0.317
		c0-0.196-0.041-0.357-0.121-0.484s-0.218-0.19-0.414-0.19c-0.178,0-0.363,0.058-0.554,0.174c-0.192,0.116-0.375,0.273-0.551,0.471
		c-0.176,0.198-0.332,0.43-0.468,0.694c-0.136,0.265-0.232,0.547-0.291,0.845l-0.541,2.699c-0.009,0.044-0.03,0.083-0.063,0.117
		c-0.033,0.034-0.084,0.062-0.154,0.083c-0.069,0.022-0.159,0.039-0.271,0.05s-0.247,0.017-0.407,0.017
		c-0.165,0-0.3-0.005-0.404-0.017s-0.187-0.028-0.247-0.05c-0.06-0.022-0.099-0.05-0.117-0.083
		c-0.018-0.033-0.022-0.072-0.014-0.117l1.196-5.965c0.009-0.044,0.028-0.083,0.057-0.117c0.029-0.034,0.074-0.06,0.134-0.08
		c0.06-0.021,0.138-0.036,0.234-0.047s0.21-0.017,0.344-0.017c0.138,0,0.25,0.005,0.337,0.017s0.155,0.026,0.204,0.047
		c0.049,0.02,0.082,0.046,0.097,0.08c0.016,0.033,0.019,0.072,0.01,0.117l-0.193,0.982c0.093-0.156,0.218-0.315,0.374-0.478
		c0.156-0.163,0.333-0.308,0.531-0.438s0.415-0.235,0.648-0.317c0.234-0.083,0.476-0.124,0.725-0.124
		c0.258,0,0.482,0.035,0.671,0.104c0.189,0.069,0.345,0.165,0.467,0.287c0.123,0.123,0.216,0.266,0.281,0.431
		c0.064,0.165,0.105,0.343,0.124,0.534c0.103-0.16,0.232-0.321,0.391-0.481s0.336-0.305,0.535-0.434
		c0.198-0.129,0.413-0.235,0.645-0.317c0.231-0.083,0.47-0.124,0.715-0.124c0.312,0,0.573,0.043,0.785,0.13s0.382,0.207,0.511,0.361
		c0.129,0.153,0.223,0.334,0.28,0.541c0.058,0.207,0.087,0.431,0.087,0.671c0,0.156-0.009,0.312-0.027,0.471
		c-0.018,0.158-0.044,0.32-0.08,0.484L48.555,44.107z"/>
	<path fill="#3F3B90" d="M56.391,38.128c0,0.058-0.006,0.123-0.02,0.193c-0.014,0.071-0.033,0.145-0.061,0.221
		c-0.152,0.41-0.314,0.833-0.49,1.269c-0.176,0.437-0.379,0.886-0.605,1.35c-0.227,0.463-0.484,0.942-0.775,1.436
		c-0.289,0.494-0.621,1.006-0.994,1.537l-1.631,2.311c-0.039,0.058-0.09,0.106-0.15,0.144c-0.059,0.038-0.135,0.069-0.227,0.094
		c-0.092,0.024-0.201,0.043-0.33,0.057c-0.13,0.013-0.279,0.02-0.448,0.02c-0.191,0-0.346-0.008-0.464-0.023
		c-0.118-0.016-0.204-0.041-0.257-0.077c-0.054-0.036-0.078-0.08-0.074-0.134c0.004-0.053,0.036-0.118,0.094-0.194l1.517-1.997
		l-0.982-5.731c-0.009-0.058-0.018-0.118-0.026-0.18c-0.009-0.062-0.014-0.116-0.014-0.161c0-0.08,0.015-0.145,0.043-0.193
		c0.029-0.049,0.078-0.087,0.147-0.114s0.162-0.045,0.277-0.057c0.115-0.011,0.256-0.017,0.422-0.017c0.182,0,0.326,0.003,0.43,0.01
		c0.105,0.007,0.184,0.021,0.236,0.043c0.055,0.022,0.092,0.056,0.111,0.1s0.035,0.1,0.043,0.167l0.615,4.175h0.014
		c0.223-0.334,0.424-0.672,0.607-1.016c0.182-0.343,0.35-0.691,0.5-1.045c0.152-0.354,0.291-0.712,0.418-1.075
		c0.127-0.363,0.244-0.729,0.352-1.099c0.008-0.044,0.027-0.083,0.059-0.117c0.031-0.034,0.084-0.06,0.158-0.08
		c0.072-0.021,0.17-0.036,0.291-0.047c0.119-0.011,0.275-0.017,0.467-0.017c0.285,0,0.48,0.018,0.588,0.053
		S56.391,38.035,56.391,38.128z"/>
	<path fill="#3F3B90" d="M34.923,50.99c0,0.164-0.028,0.385-0.084,0.661c-0.056,0.276-0.126,0.498-0.211,0.666
		c-0.085,0.167-0.181,0.251-0.287,0.251c-0.077,0-0.167-0.049-0.273-0.146s-0.244-0.201-0.415-0.313
		c-0.17-0.111-0.388-0.215-0.652-0.312s-0.594-0.146-0.987-0.146c-0.435,0-0.832,0.087-1.19,0.261
		c-0.359,0.173-0.679,0.402-0.961,0.688s-0.529,0.612-0.741,0.982c-0.211,0.371-0.386,0.756-0.524,1.155
		c-0.138,0.4-0.241,0.798-0.309,1.195c-0.068,0.396-0.102,0.766-0.102,1.106c0,0.411,0.051,0.773,0.154,1.084
		c0.103,0.312,0.251,0.57,0.445,0.776s0.432,0.36,0.714,0.463s0.6,0.154,0.952,0.154c0.417,0,0.774-0.044,1.071-0.132
		c0.297-0.089,0.55-0.186,0.758-0.291c0.209-0.106,0.382-0.203,0.521-0.291c0.138-0.089,0.263-0.133,0.375-0.133
		c0.077,0,0.128,0.028,0.154,0.084s0.04,0.134,0.04,0.233c0,0.042-0.006,0.104-0.018,0.186s-0.026,0.175-0.044,0.277
		c-0.018,0.104-0.038,0.215-0.062,0.335c-0.024,0.121-0.05,0.232-0.08,0.336c-0.029,0.103-0.063,0.196-0.101,0.282
		c-0.039,0.085-0.09,0.16-0.154,0.225c-0.065,0.064-0.191,0.148-0.379,0.251c-0.188,0.104-0.417,0.198-0.688,0.287
		c-0.27,0.088-0.576,0.163-0.917,0.225s-0.705,0.093-1.093,0.093c-0.641,0-1.218-0.086-1.732-0.256
		c-0.515-0.171-0.951-0.43-1.31-0.776s-0.635-0.781-0.829-1.305c-0.194-0.523-0.291-1.135-0.291-1.834
		c0-0.547,0.056-1.115,0.167-1.706c0.111-0.591,0.28-1.169,0.507-1.733c0.226-0.563,0.513-1.099,0.86-1.604
		c0.347-0.505,0.757-0.948,1.23-1.327s1.011-0.68,1.614-0.904c0.602-0.223,1.271-0.335,2.006-0.335c0.411,0,0.801,0.043,1.168,0.128
		c0.367,0.085,0.688,0.198,0.961,0.339s0.464,0.269,0.573,0.384C34.869,50.668,34.923,50.814,34.923,50.99z"/>
	<path fill="#3F3B90" d="M36.757,60.998c-0.012,0.059-0.04,0.11-0.084,0.154c-0.044,0.044-0.11,0.081-0.198,0.11
		c-0.088,0.029-0.206,0.052-0.353,0.066s-0.326,0.021-0.538,0.021c-0.223,0-0.404-0.007-0.542-0.021
		c-0.138-0.015-0.246-0.037-0.322-0.066c-0.077-0.029-0.128-0.066-0.155-0.11c-0.026-0.044-0.034-0.096-0.022-0.154l2.319-11.595
		c0.012-0.059,0.038-0.111,0.079-0.159c0.041-0.047,0.109-0.086,0.203-0.119c0.094-0.032,0.213-0.057,0.357-0.075
		s0.325-0.026,0.542-0.026c0.217,0,0.395,0.009,0.533,0.026s0.246,0.042,0.322,0.075c0.076,0.033,0.126,0.072,0.15,0.119
		c0.023,0.047,0.029,0.1,0.018,0.159L36.757,60.998z"/>
	<path fill="#3F3B90" d="M47.656,55.778c0,0.423-0.04,0.858-0.119,1.305c-0.08,0.447-0.204,0.884-0.375,1.31
		c-0.17,0.426-0.389,0.826-0.657,1.199s-0.588,0.702-0.961,0.987c-0.374,0.285-0.801,0.51-1.283,0.675
		c-0.482,0.164-1.026,0.247-1.631,0.247c-0.594,0-1.106-0.069-1.539-0.208c-0.432-0.138-0.792-0.341-1.08-0.608
		c-0.288-0.267-0.502-0.596-0.644-0.987c-0.141-0.391-0.211-0.839-0.211-1.345c0-0.423,0.04-0.858,0.119-1.305
		c0.08-0.446,0.204-0.882,0.375-1.305c0.17-0.424,0.389-0.825,0.657-1.204s0.588-0.71,0.961-0.992
		c0.374-0.282,0.801-0.505,1.283-0.67c0.482-0.164,1.026-0.247,1.631-0.247c0.594,0,1.106,0.069,1.539,0.207
		c0.432,0.139,0.792,0.342,1.08,0.609c0.288,0.267,0.502,0.597,0.644,0.987S47.656,55.272,47.656,55.778z M45.363,55.928
		c0-0.247-0.025-0.466-0.075-0.656c-0.05-0.191-0.132-0.354-0.247-0.485c-0.114-0.132-0.261-0.233-0.44-0.305
		c-0.18-0.07-0.398-0.105-0.657-0.105c-0.294,0-0.559,0.058-0.793,0.172c-0.235,0.115-0.445,0.27-0.63,0.463
		c-0.185,0.194-0.346,0.419-0.48,0.675c-0.135,0.256-0.247,0.524-0.335,0.807c-0.088,0.282-0.153,0.568-0.194,0.859
		s-0.062,0.569-0.062,0.834c0,0.247,0.025,0.467,0.075,0.661s0.132,0.357,0.247,0.489s0.261,0.233,0.441,0.305
		c0.179,0.07,0.398,0.105,0.657,0.105c0.294,0,0.559-0.058,0.793-0.172c0.235-0.115,0.445-0.271,0.631-0.468
		c0.185-0.196,0.345-0.423,0.48-0.679c0.135-0.256,0.247-0.526,0.335-0.812c0.088-0.285,0.153-0.571,0.194-0.859
		S45.363,56.192,45.363,55.928z"/>
	<path fill="#3F3B90" d="M54.984,53.477c0,0.07-0.012,0.175-0.031,0.313c-0.021,0.138-0.053,0.277-0.094,0.419
		c-0.041,0.141-0.09,0.263-0.145,0.365c-0.057,0.104-0.119,0.154-0.189,0.154c-0.076,0-0.166-0.027-0.27-0.084
		c-0.104-0.056-0.229-0.117-0.375-0.185s-0.318-0.128-0.516-0.181S52.938,54.2,52.674,54.2c-0.207,0-0.391,0.026-0.553,0.079
		c-0.16,0.053-0.295,0.125-0.4,0.216s-0.188,0.198-0.242,0.322c-0.057,0.123-0.084,0.255-0.084,0.396
		c0,0.183,0.074,0.335,0.225,0.458c0.15,0.124,0.336,0.24,0.561,0.349c0.223,0.108,0.465,0.222,0.723,0.34
		c0.26,0.117,0.5,0.265,0.723,0.44c0.225,0.177,0.408,0.392,0.557,0.644c0.146,0.253,0.221,0.57,0.221,0.952
		c0,0.447-0.086,0.86-0.256,1.239c-0.172,0.379-0.42,0.707-0.746,0.983s-0.723,0.492-1.189,0.647
		c-0.469,0.156-0.996,0.234-1.584,0.234c-0.282,0-0.551-0.021-0.807-0.062c-0.256-0.041-0.485-0.091-0.688-0.149
		c-0.203-0.059-0.375-0.126-0.516-0.203c-0.141-0.076-0.247-0.146-0.317-0.211c-0.047-0.048-0.081-0.098-0.102-0.15
		s-0.031-0.12-0.031-0.203c0-0.053,0.004-0.12,0.013-0.202s0.023-0.174,0.044-0.273c0.021-0.1,0.044-0.2,0.071-0.3
		s0.057-0.191,0.093-0.273c0.035-0.082,0.073-0.148,0.114-0.198s0.085-0.075,0.132-0.075c0.083,0,0.173,0.035,0.273,0.105
		c0.1,0.071,0.229,0.148,0.388,0.234c0.159,0.085,0.354,0.164,0.586,0.237c0.232,0.074,0.522,0.11,0.869,0.11
		c0.241,0,0.451-0.027,0.63-0.083c0.18-0.057,0.328-0.134,0.445-0.234c0.117-0.1,0.205-0.214,0.26-0.344
		c0.057-0.129,0.084-0.268,0.084-0.414c0-0.206-0.072-0.373-0.215-0.503c-0.145-0.129-0.326-0.25-0.543-0.361
		c-0.218-0.111-0.454-0.227-0.71-0.344c-0.256-0.118-0.493-0.262-0.71-0.433c-0.217-0.17-0.398-0.382-0.542-0.635
		c-0.145-0.253-0.216-0.57-0.216-0.952c0-0.417,0.08-0.806,0.238-1.164s0.391-0.671,0.696-0.938s0.676-0.477,1.111-0.626
		c0.436-0.15,0.93-0.226,1.482-0.226c0.246,0,0.486,0.017,0.719,0.049s0.441,0.075,0.625,0.128c0.186,0.053,0.348,0.111,0.486,0.176
		c0.137,0.065,0.236,0.13,0.295,0.194C54.951,53.235,54.984,53.336,54.984,53.477z"/>
	<path fill="#3F3B90" d="M63.809,54.861c0,0.423-0.096,0.804-0.285,1.142c-0.191,0.338-0.488,0.629-0.891,0.873
		s-0.914,0.431-1.535,0.56c-0.619,0.13-1.359,0.194-2.217,0.194h-0.812c-0.023,0.135-0.041,0.269-0.053,0.401
		c-0.012,0.132-0.018,0.254-0.018,0.365c0,0.477,0.123,0.835,0.371,1.076c0.246,0.241,0.643,0.361,1.189,0.361
		c0.389,0,0.736-0.027,1.045-0.084c0.309-0.056,0.58-0.117,0.812-0.185s0.424-0.13,0.576-0.186c0.154-0.056,0.266-0.084,0.336-0.084
		s0.121,0.021,0.15,0.062s0.043,0.105,0.043,0.193c0,0.101-0.008,0.215-0.025,0.344c-0.018,0.13-0.043,0.258-0.076,0.384
		c-0.031,0.127-0.072,0.246-0.123,0.357c-0.049,0.111-0.107,0.197-0.172,0.256c-0.07,0.07-0.199,0.141-0.389,0.211
		c-0.188,0.071-0.414,0.136-0.678,0.194c-0.266,0.059-0.562,0.107-0.891,0.146c-0.33,0.038-0.664,0.058-1.006,0.058
		c-0.564,0-1.057-0.06-1.477-0.177s-0.771-0.297-1.053-0.538c-0.283-0.24-0.494-0.548-0.637-0.921
		c-0.141-0.373-0.211-0.815-0.211-1.327c0-0.394,0.037-0.815,0.111-1.266c0.072-0.449,0.191-0.894,0.355-1.331
		c0.166-0.438,0.377-0.856,0.635-1.257c0.26-0.399,0.572-0.751,0.939-1.054s0.793-0.545,1.275-0.728
		c0.48-0.182,1.031-0.273,1.648-0.273c0.535,0,0.994,0.063,1.379,0.189c0.385,0.127,0.701,0.295,0.949,0.503
		c0.246,0.209,0.43,0.447,0.551,0.714C63.748,54.304,63.809,54.579,63.809,54.861z M61.631,55.028c0-0.234-0.092-0.431-0.277-0.586
		c-0.186-0.156-0.453-0.233-0.807-0.233c-0.295,0-0.557,0.053-0.789,0.158s-0.438,0.248-0.613,0.428s-0.328,0.391-0.453,0.635
		c-0.127,0.244-0.229,0.504-0.305,0.78h0.74c0.471,0,0.865-0.03,1.182-0.093c0.318-0.062,0.574-0.146,0.768-0.251
		s0.334-0.23,0.424-0.375C61.588,55.348,61.631,55.193,61.631,55.028z"/>
	<path fill="#3F3B90" d="M70.547,53.212c0,0.059-0.006,0.134-0.018,0.225c-0.014,0.092-0.029,0.19-0.049,0.296
		c-0.021,0.105-0.049,0.212-0.084,0.317s-0.076,0.201-0.119,0.286c-0.045,0.086-0.094,0.156-0.15,0.212s-0.115,0.084-0.18,0.084
		h-1.721l-0.74,3.694c-0.018,0.088-0.033,0.192-0.049,0.313c-0.014,0.12-0.021,0.219-0.021,0.295c0,0.235,0.055,0.407,0.168,0.516
		c0.111,0.109,0.287,0.163,0.529,0.163c0.141,0,0.26-0.01,0.361-0.03c0.1-0.021,0.186-0.044,0.26-0.07
		c0.072-0.026,0.137-0.05,0.189-0.071c0.053-0.021,0.104-0.03,0.15-0.03s0.086,0.021,0.119,0.065
		c0.031,0.045,0.047,0.116,0.047,0.217c0,0.111-0.012,0.237-0.035,0.379c-0.023,0.141-0.055,0.277-0.092,0.41
		c-0.039,0.132-0.08,0.253-0.129,0.361c-0.047,0.108-0.096,0.189-0.148,0.242s-0.133,0.104-0.238,0.15s-0.23,0.088-0.375,0.123
		s-0.299,0.063-0.463,0.084s-0.33,0.031-0.494,0.031c-0.352,0-0.662-0.037-0.93-0.11s-0.492-0.189-0.676-0.349
		c-0.182-0.158-0.318-0.361-0.408-0.608c-0.092-0.247-0.137-0.547-0.137-0.899c0-0.064,0.002-0.14,0.008-0.225
		s0.016-0.175,0.031-0.27c0.014-0.094,0.029-0.189,0.043-0.286c0.016-0.097,0.031-0.184,0.049-0.26l0.768-3.836h-0.953
		c-0.076,0-0.131-0.025-0.166-0.075s-0.053-0.146-0.053-0.286c0-0.101,0.01-0.23,0.029-0.393c0.021-0.162,0.055-0.32,0.102-0.477
		c0.047-0.155,0.109-0.289,0.186-0.4c0.076-0.112,0.168-0.168,0.273-0.168h0.943l0.354-1.755c0.012-0.059,0.039-0.111,0.084-0.159
		c0.043-0.047,0.111-0.086,0.201-0.119c0.092-0.033,0.209-0.056,0.354-0.071s0.324-0.022,0.543-0.022
		c0.211,0,0.387,0.007,0.529,0.022c0.141,0.015,0.248,0.038,0.326,0.071c0.076,0.032,0.127,0.072,0.154,0.119
		c0.025,0.047,0.033,0.1,0.021,0.159l-0.354,1.755h1.703c0.1,0,0.166,0.032,0.201,0.097C70.529,52.995,70.547,53.089,70.547,53.212z
		"/>
</g>
<g>
	<g>
		<polygon fill="#392DAA" stroke="#392DAA" stroke-width="2" stroke-linejoin="round" stroke-miterlimit="10" points="545,766.277 
			529,763.691 529,694.602 545,692 		"/>
		
			<rect x="544.661" y="692.002" transform="matrix(1 0.0015 -0.0015 1 1.0934 -0.8193)" fill="none" stroke="#392DAA" stroke-width="2" stroke-linejoin="round" stroke-miterlimit="10" width="5.213" height="74.275"/>
		<polygon fill="#392DAA" points="534,724 524,724 522.34,711 534,711 		"/>
		<polygon fill="#392DAA" points="534,743 521.873,743 524,730 534,730 		"/>
	</g>
	<g>
		<path fill="#392DAA" d="M417.744,726.074c0-32.215,23.342-58.33,52.134-58.33c0.472,0,0.938,0.026,1.407,0.041L471.281,667
			l-4.963-0.588c-0.637,0-11.116,1.188-11.758,1.23c-30.053,2.045-52.961,26.166-52.961,58.381c0,31.125,20.4,56.604,48.4,58.29
			l5.578,0.53l13.391,1.053l0.803-1.494C441.028,784.337,417.744,758.25,417.744,726.074z"/>
		
			<ellipse fill="none" stroke="#392DAA" stroke-width="3" stroke-miterlimit="10" cx="470.877" cy="726.074" rx="52.133" ry="58.33"/>
		
			<ellipse fill="none" stroke="#392DAA" stroke-width="2" stroke-miterlimit="10" cx="470.878" cy="726.074" rx="45.37" ry="50.764"/>
	</g>
	<text transform="matrix(1 0 0 1 455.3613 715.8008)"><tspan x="0" y="0" fill="#3F3B90" font-family="'Calibri-BoldItalic'" font-size="25">my</tspan><tspan x="-25.713" y="31" fill="#3F3B90" font-family="'Calibri-BoldItalic'" font-size="33">Closet</tspan></text>
</g>
</svg>
