<?xml version="1.0" encoding="utf-8"?>
<!-- Generator: Adobe Illustrator 16.0.0, SVG Export Plug-In . SVG Version: 6.00 Build 0)  -->
<!DOCTYPE svg PUBLIC "-//W3C//DTD SVG 1.1//EN" "http://www.w3.org/Graphics/SVG/1.1/DTD/svg11.dtd">
<svg version="1.1" id="Layer_1" xmlns="http://www.w3.org/2000/svg" xmlns:xlink="http://www.w3.org/1999/xlink" x="0px" y="0px"
	 width="42px" height="42px" viewBox="0 0 42 42" enable-background="new 0 0 42 42" xml:space="preserve">
<circle fill="#5BE8CD" stroke="#3AC9AD" stroke-linecap="round" stroke-linejoin="round" stroke-miterlimit="10" cx="253.252" cy="-9.897" r="17"/>
<g>
	<path fill="#FFFFFF" stroke="#3AC9AD" stroke-linecap="round" stroke-linejoin="round" stroke-miterlimit="10" d="M263.535-7.407
		c0.119-0.494,0.199-0.987,0.246-1.479l3.367-1.825c-0.051-0.903-0.193-1.792-0.416-2.654l-3.762-0.709
		c-0.396-0.921-0.926-1.782-1.562-2.555l1.09-3.669c-0.664-0.592-1.395-1.125-2.17-1.584l-3.164,2.159
		c-0.459-0.182-0.938-0.337-1.43-0.457c-0.491-0.12-0.984-0.199-1.479-0.247l-1.824-3.367c-0.9,0.052-1.791,0.194-2.65,0.417
		l-0.713,3.761c-0.92,0.396-1.778,0.921-2.555,1.558l-3.666-1.09c-0.595,0.665-1.125,1.39-1.584,2.169l2.156,3.163
		c-0.184,0.46-0.336,0.935-0.455,1.429c-0.119,0.494-0.199,0.986-0.25,1.479l-3.365,1.825c0.053,0.903,0.192,1.793,0.418,2.653
		l3.76,0.71c0.396,0.92,0.924,1.78,1.562,2.555L244,0.505c0.665,0.593,1.391,1.125,2.169,1.584l3.164-2.159
		c0.46,0.183,0.937,0.337,1.429,0.457c0.493,0.118,0.986,0.198,1.479,0.247l1.825,3.367c0.9-0.053,1.793-0.193,2.65-0.418
		l0.713-3.76c0.92-0.396,1.777-0.923,2.555-1.56l3.67,1.09c0.593-0.664,1.125-1.39,1.585-2.17l-2.159-3.162
		C263.261-6.438,263.415-6.913,263.535-7.407z M253.252-4.793c-2.818,0-5.104-2.285-5.104-5.104c0-2.818,2.285-5.103,5.104-5.103
		s5.104,2.285,5.104,5.103S256.07-4.793,253.252-4.793z"/>
</g>
<circle fill="#5BE8CD" stroke="#3AC9AD" stroke-linecap="round" stroke-linejoin="round" stroke-miterlimit="10" cx="253.252" cy="48.496" r="17"/>
<g>
	<path fill="#FFFFFF" d="M261.02,50.377c0.09-0.373,0.15-0.746,0.188-1.117l2.543-1.379c-0.039-0.682-0.146-1.354-0.312-2.004
		l-2.846-0.535c-0.299-0.695-0.691-1.348-1.176-1.93l0.82-2.771c-0.504-0.447-1.053-0.85-1.641-1.197l-2.389,1.635
		c-0.348-0.141-0.705-0.258-1.08-0.35c-0.371-0.09-0.744-0.146-1.117-0.188L252.635,38c-0.68,0.039-1.352,0.146-2.002,0.314
		l-0.537,2.842c-0.695,0.299-1.346,0.695-1.93,1.176l-2.77-0.824c-0.447,0.504-0.854,1.051-1.195,1.639l1.629,2.395
		c-0.137,0.346-0.252,0.703-0.344,1.078c-0.092,0.369-0.15,0.74-0.189,1.113l-2.541,1.379c0.039,0.686,0.146,1.354,0.314,2.008
		l2.84,0.531c0.301,0.695,0.697,1.35,1.178,1.934l-0.822,2.771c0.502,0.447,1.049,0.852,1.637,1.195l2.395-1.631
		c0.352,0.139,0.707,0.254,1.08,0.348c0.371,0.088,0.744,0.146,1.111,0.188l1.383,2.541c0.682-0.039,1.354-0.146,2.004-0.312
		l0.537-2.843c0.689-0.301,1.344-0.694,1.928-1.178l2.771,0.819c0.447-0.502,0.851-1.049,1.195-1.64l-1.632-2.389
		C260.811,51.107,260.928,50.75,261.02,50.377z M253.252,52.35c-2.129,0-3.854-1.725-3.854-3.854s1.725-3.855,3.854-3.855
		s3.855,1.729,3.855,3.855S255.381,52.35,253.252,52.35z"/>
</g>
<circle fill="#5BE8CD" cx="21" cy="21" r="17"/>
<g>
	<path fill="#FFFFFF" d="M357.693,8.846c0.084-0.346,0.141-0.693,0.174-1.037l2.355-1.276c-0.033-0.633-0.135-1.256-0.291-1.858
		l-2.635-0.496c-0.275-0.645-0.646-1.25-1.091-1.789l0.763-2.57c-0.467-0.414-0.976-0.788-1.521-1.109l-2.215,1.513
		c-0.324-0.128-0.654-0.235-1.002-0.321c-0.347-0.083-0.691-0.138-1.037-0.175l-1.278-2.355c-0.631,0.036-1.254,0.135-1.856,0.291
		L347.562,0.3c-0.646,0.276-1.246,0.644-1.787,1.09l-2.568-0.764c-0.415,0.467-0.789,0.975-1.108,1.52l1.514,2.217
		c-0.128,0.321-0.234,0.652-0.319,1c-0.085,0.346-0.139,0.689-0.176,1.035l-2.354,1.279c0.035,0.633,0.137,1.256,0.291,1.857
		l2.633,0.494c0.279,0.645,0.646,1.25,1.095,1.791l-0.765,2.568c0.467,0.416,0.976,0.789,1.521,1.111l2.217-1.514
		c0.323,0.127,0.655,0.236,1.002,0.32c0.345,0.082,0.689,0.139,1.033,0.176l1.279,2.354c0.633-0.033,1.256-0.135,1.857-0.291
		l0.498-2.633c0.643-0.279,1.245-0.645,1.786-1.092l2.57,0.762c0.414-0.467,0.787-0.973,1.106-1.52l-1.514-2.215
		C357.5,9.521,357.609,9.191,357.693,8.846z M350.492,12.092c-2.758,0-4.992-2.234-4.992-4.99c0-2.759,2.234-4.993,4.992-4.993
		s4.993,2.234,4.993,4.993C355.484,9.857,353.25,12.092,350.492,12.092z"/>
</g>
<rect x="14.588" y="16.595" fill="none" width="12.824" height="8.811"/>
<path fill="none" stroke="#FFFFFF" stroke-width="2" stroke-miterlimit="10" d="M26.5,29.262c0,1.028-0.974,2.238-1.857,2.238
	h-8.847c-0.885,0-2.208-1.21-2.208-2.238V13.738c0-1.028,1.324-2.238,2.208-2.238h8.847c0.883,0,1.856,1.21,1.856,2.238L26.5,29.262
	L26.5,29.262z"/>
<path fill="none" stroke="#FFFFFF" stroke-width="2" stroke-miterlimit="10" d="M88.5,51.262c0,1.028-1.131,2.238-2.157,2.238
	H76.064c-1.027,0-2.564-1.21-2.564-2.238V35.738c0-1.028,1.538-2.238,2.564-2.238h10.277c1.026,0,2.157,1.21,2.157,2.238
	L88.5,51.262L88.5,51.262z"/>
<g>
	<g>
		<polygon fill="#FFFFFF" stroke="#DDDDDD" stroke-miterlimit="10" points="85.984,46.198 78.727,46.198 78.727,39.852 
			85.984,39.852 85.984,36.716 96.096,43.025 85.984,49.329 		"/>
		<path fill="#DDDDDD" d="M86.984,38.52l7.222,4.506l-7.222,4.502v-2.328h-7.26v-4.348h7.26V38.52 M84.984,34.913v3.604v0.332h-5.26
			h-2v2v4.349v2h2h5.26v0.329v3.604l3.06-1.906l7.222-4.504l2.719-1.697l-2.719-1.696l-7.222-4.507L84.984,34.913L84.984,34.913z"/>
	</g>
</g>
<g id="Arrow_28">
	<rect x="131.286" y="43.662" fill="none" width="45.721" height="31.753"/>
	<g>
		<g>
			<polygon fill="#FFFFFF" points="21.887,27.172 25.507,23.551 17.966,23.551 17.966,18.449 25.507,18.449 21.887,14.829 
				29.101,14.829 35.272,21 29.101,27.172 			"/>
			<path fill="#5BE8CD" d="M28.687,15.829L33.858,21l-5.172,5.171h-4.386l3.62-3.621h-8.955v-3.102h8.955l-3.62-3.62H28.687
				 M29.515,13.829h-0.828h-4.386h-4.829l3.415,3.414l0.206,0.206h-4.127h-2v2v3.102v2h2h4.128l-0.207,0.207l-3.414,3.414h4.828
				h4.386h0.828l0.586-0.586l5.172-5.171L36.687,21l-1.414-1.414l-5.172-5.172L29.515,13.829L29.515,13.829z"/>
		</g>
	</g>
</g>
</svg>
