<?xml version="1.0" encoding="utf-8"?>
<!-- Generator: Adobe Illustrator 16.0.0, SVG Export Plug-In . SVG Version: 6.00 Build 0)  -->
<!DOCTYPE svg PUBLIC "-//W3C//DTD SVG 1.1//EN" "http://www.w3.org/Graphics/SVG/1.1/DTD/svg11.dtd">
<svg version="1.1" id="Layer_1" xmlns="http://www.w3.org/2000/svg" xmlns:xlink="http://www.w3.org/1999/xlink" x="0px" y="0px"
	 width="42px" height="42px" viewBox="0 0 42 42" enable-background="new 0 0 42 42" xml:space="preserve">
<circle fill="#5BE8CD" stroke="#3AC9AD" stroke-linecap="round" stroke-linejoin="round" stroke-miterlimit="10" cx="253.252" cy="-9.897" r="17"/>
<g>
	<path fill="#FFFFFF" stroke="#3AC9AD" stroke-linecap="round" stroke-linejoin="round" stroke-miterlimit="10" d="M263.535-7.407
		c0.119-0.494,0.199-0.987,0.246-1.479l3.367-1.825c-0.051-0.903-0.193-1.792-0.416-2.654l-3.762-0.709
		c-0.396-0.921-0.924-1.782-1.561-2.555l1.09-3.669c-0.664-0.592-1.393-1.125-2.17-1.584l-3.164,2.159
		c-0.459-0.182-0.936-0.337-1.428-0.457c-0.493-0.12-0.986-0.199-1.479-0.247l-1.825-3.367c-0.901,0.052-1.791,0.194-2.651,0.417
		l-0.712,3.761c-0.92,0.396-1.779,0.921-2.555,1.558l-3.666-1.09c-0.594,0.665-1.125,1.39-1.584,2.169l2.157,3.163
		c-0.183,0.46-0.336,0.935-0.455,1.429c-0.12,0.494-0.2,0.986-0.25,1.479l-3.366,1.825c0.053,0.903,0.193,1.793,0.418,2.653
		l3.76,0.71c0.396,0.92,0.923,1.78,1.561,2.555L244,0.505c0.665,0.593,1.391,1.125,2.169,1.584l3.164-2.159
		c0.46,0.183,0.937,0.337,1.429,0.457c0.493,0.118,0.986,0.198,1.479,0.247l1.825,3.367c0.902-0.053,1.793-0.193,2.652-0.418
		l0.711-3.76c0.92-0.396,1.779-0.923,2.555-1.56l3.671,1.09c0.592-0.664,1.125-1.39,1.584-2.17l-2.159-3.162
		C263.261-6.438,263.415-6.913,263.535-7.407z M253.252-4.793c-2.818,0-5.104-2.285-5.104-5.104c0-2.818,2.285-5.103,5.104-5.103
		s5.104,2.285,5.104,5.103S256.07-4.793,253.252-4.793z"/>
</g>
<circle fill="#5BE8CD" stroke="#3AC9AD" stroke-linecap="round" stroke-linejoin="round" stroke-miterlimit="10" cx="253.252" cy="48.496" r="17"/>
<g>
	<path fill="#FFFFFF" d="M261.02,50.377c0.09-0.373,0.15-0.746,0.188-1.117l2.543-1.379c-0.039-0.682-0.146-1.354-0.312-2.004
		l-2.844-0.535c-0.299-0.695-0.693-1.348-1.176-1.93l0.821-2.771c-0.503-0.447-1.052-0.85-1.64-1.197l-2.389,1.633
		c-0.348-0.139-0.705-0.256-1.08-0.348c-0.371-0.09-0.744-0.146-1.117-0.188L252.635,38c-0.68,0.039-1.352,0.146-2.002,0.314
		l-0.537,2.842c-0.695,0.299-1.346,0.695-1.93,1.176l-2.77-0.824c-0.447,0.504-0.852,1.051-1.195,1.639l1.629,2.393
		c-0.137,0.346-0.252,0.703-0.344,1.078c-0.092,0.371-0.15,0.742-0.189,1.115l-2.541,1.379c0.039,0.684,0.146,1.354,0.314,2.006
		l2.84,0.533c0.301,0.695,0.697,1.348,1.178,1.932l-0.822,2.771c0.502,0.448,1.049,0.851,1.637,1.196l2.393-1.631
		c0.35,0.138,0.707,0.254,1.08,0.347c0.371,0.088,0.744,0.147,1.113,0.188l1.381,2.541c0.682-0.039,1.354-0.146,2.004-0.312
		l0.537-2.842c0.691-0.301,1.344-0.695,1.928-1.178l2.771,0.82c0.447-0.502,0.85-1.049,1.195-1.639l-1.631-2.389
		C260.811,51.107,260.928,50.75,261.02,50.377z M253.252,52.35c-2.129,0-3.854-1.725-3.854-3.854s1.725-3.855,3.854-3.855
		s3.855,1.729,3.855,3.855S255.381,52.35,253.252,52.35z"/>
</g>
<g>
	<circle fill="#5BE8CD" cx="21" cy="21" r="17"/>
</g>
<g>
	<path fill="#FFFFFF" d="M28.201,22.744c0.084-0.346,0.141-0.693,0.174-1.037l2.357-1.277c-0.035-0.633-0.135-1.256-0.291-1.858
		l-2.635-0.496c-0.277-0.645-0.646-1.25-1.091-1.789l0.763-2.57c-0.467-0.414-0.976-0.788-1.521-1.109l-2.215,1.513
		c-0.324-0.128-0.654-0.235-1.002-0.321c-0.345-0.083-0.691-0.138-1.037-0.175l-1.277-2.355c-0.631,0.036-1.254,0.135-1.856,0.291
		l-0.498,2.636c-0.645,0.276-1.248,0.644-1.789,1.09l-2.568-0.764c-0.415,0.467-0.789,0.975-1.108,1.52l1.511,2.217
		c-0.128,0.321-0.234,0.652-0.319,1c-0.085,0.346-0.139,0.689-0.176,1.035l-2.355,1.278c0.036,0.633,0.135,1.256,0.291,1.858
		l2.634,0.494c0.278,0.645,0.646,1.25,1.092,1.791l-0.762,2.568c0.465,0.416,0.973,0.789,1.518,1.111l2.217-1.515
		c0.323,0.127,0.655,0.236,1.002,0.32c0.344,0.082,0.689,0.139,1.033,0.176l1.278,2.354c0.633-0.034,1.256-0.135,1.859-0.291
		l0.498-2.633c0.641-0.279,1.245-0.646,1.786-1.092l2.57,0.762c0.414-0.467,0.787-0.973,1.108-1.52l-1.514-2.215
		C28.008,23.42,28.117,23.09,28.201,22.744z M21,25.99c-2.758,0-4.992-2.234-4.992-4.99c0-2.759,2.234-4.993,4.992-4.993
		s4.992,2.234,4.992,4.993C25.992,23.756,23.758,25.99,21,25.99z"/>
</g>
</svg>
