<?xml version="1.0" encoding="utf-8"?>
<!-- Generator: Adobe Illustrator 16.0.0, SVG Export Plug-In . SVG Version: 6.00 Build 0)  -->
<!DOCTYPE svg PUBLIC "-//W3C//DTD SVG 1.1//EN" "http://www.w3.org/Graphics/SVG/1.1/DTD/svg11.dtd">
<svg version="1.1" id="Layer_1" xmlns="http://www.w3.org/2000/svg" xmlns:xlink="http://www.w3.org/1999/xlink" x="0px" y="0px"
	 width="101px" height="40px" viewBox="0 0 101 40" enable-background="new 0 0 101 40" xml:space="preserve">
<path fill="#3F3B90" d="M99,30.299C99,32.363,96.617,34,94.035,34H7.147C4.566,34,2,32.363,2,30.299V8.405C2,6.34,4.566,5,7.147,5
	h86.888C96.617,5,99,6.34,99,8.405V30.299z"/>
<path fill="none" stroke="#FFFFFF" stroke-width="2" stroke-linecap="round" stroke-miterlimit="10" d="M9.953,26.396l14.301-7.819
	c0,0,1.232-0.619,2.283-0.054l11.627,6.38c0,0,8.556,4.097,2.555,4.097c-1.404,0-30.801,0-30.801,0S5.846,28.691,9.953,26.396z"/>
<path fill="none" stroke="#FFFFFF" stroke-width="1.8" stroke-linecap="round" stroke-miterlimit="10" d="M25.354,17.331
	c0-0.594-0.14-1.25,0.029-1.819c0.096-0.325,0.403-0.547,0.606-0.818c0.15-0.2,0.204-0.231,0.368-0.337l0.064-0.064
	c1.994-1.228,1.323-4.489-1.124-4.792c-2.602-0.321-4.175,2.947-2.296,4.583"/>
<text transform="matrix(0.94 0 0 1 46.144 29)" fill="#FFFFFF" font-family="'Calibri'" font-size="21">HANG</text>
</svg>
