<?xml version="1.0" encoding="utf-8"?>
<!-- Generator: Adobe Illustrator 16.0.0, SVG Export Plug-In . SVG Version: 6.00 Build 0)  -->
<!DOCTYPE svg PUBLIC "-//W3C//DTD SVG 1.1//EN" "http://www.w3.org/Graphics/SVG/1.1/DTD/svg11.dtd">
<svg version="1.1" id="Layer_1" xmlns="http://www.w3.org/2000/svg" xmlns:xlink="http://www.w3.org/1999/xlink" x="0px" y="0px"
	 width="40px" height="40px" viewBox="0 0 40 40" enable-background="new 0 0 40 40" xml:space="preserve">
<g>
</g>
<g>
	<circle fill="none" stroke="#000DCC" stroke-miterlimit="10" cx="19.845" cy="20.341" r="15"/>
	<path fill="none" stroke="#000DCC" stroke-linecap="round" stroke-miterlimit="10" d="M10.206,20.261l8.875-5.162
		c0,0,0.765-0.54,1.417-0.189l7.216,4.504c0,0,5.311,3.087,1.585,3.087c-0.871,0-19.116,0-19.116,0S7.657,21.686,10.206,20.261z"/>
	<path fill="none" stroke="#000DCC" stroke-linecap="round" stroke-miterlimit="10" d="M19.764,14.014
		c0-0.369-0.087-0.776,0.018-1.129c0.06-0.202,0.25-0.34,0.376-0.507c0.093-0.125,0.126-0.144,0.229-0.209l0.04-0.04
		c1.238-0.762,0.821-2.786-0.698-2.974c-1.615-0.199-2.591,1.829-1.425,2.844"/>
	<g>
		<path fill="#000DCC" d="M13.974,28.669c0,0.029-0.009,0.056-0.026,0.078c-0.018,0.023-0.047,0.042-0.087,0.057
			s-0.095,0.025-0.163,0.034c-0.068,0.009-0.154,0.014-0.257,0.014c-0.105,0-0.193-0.005-0.262-0.014
			c-0.069-0.009-0.124-0.02-0.163-0.034c-0.039-0.015-0.068-0.033-0.085-0.057c-0.018-0.022-0.026-0.049-0.026-0.078v-2.265h-1.97
			v2.265c0,0.029-0.008,0.056-0.024,0.078c-0.017,0.023-0.045,0.042-0.085,0.057c-0.041,0.015-0.095,0.025-0.163,0.034
			s-0.155,0.014-0.26,0.014c-0.104,0-0.189-0.005-0.259-0.014c-0.069-0.009-0.124-0.02-0.165-0.034
			c-0.041-0.015-0.07-0.033-0.087-0.057c-0.018-0.022-0.027-0.049-0.027-0.078v-5.291c0-0.028,0.009-0.055,0.027-0.078
			c0.018-0.022,0.046-0.041,0.087-0.056c0.041-0.015,0.096-0.026,0.165-0.035c0.069-0.009,0.155-0.013,0.259-0.013
			c0.105,0,0.192,0.004,0.26,0.013s0.122,0.021,0.163,0.035c0.041,0.015,0.069,0.033,0.085,0.056
			c0.016,0.023,0.024,0.05,0.024,0.078v2.057h1.97v-2.057c0-0.028,0.009-0.055,0.026-0.078c0.018-0.022,0.046-0.041,0.085-0.056
			c0.04-0.015,0.094-0.026,0.163-0.035c0.069-0.009,0.157-0.013,0.262-0.013c0.103,0,0.189,0.004,0.257,0.013
			c0.067,0.009,0.122,0.021,0.163,0.035s0.07,0.033,0.087,0.056c0.018,0.023,0.026,0.05,0.026,0.078V28.669z"/>
		<path fill="#000DCC" d="M19.437,28.4c0.033,0.104,0.053,0.187,0.061,0.247s-0.002,0.106-0.033,0.137
			c-0.03,0.03-0.083,0.049-0.159,0.057c-0.076,0.007-0.18,0.011-0.313,0.011c-0.139,0-0.247-0.003-0.324-0.007
			c-0.078-0.004-0.136-0.013-0.177-0.026c-0.041-0.013-0.069-0.03-0.085-0.054c-0.016-0.023-0.03-0.054-0.041-0.091l-0.354-1.126
			h-1.978L15.7,28.644c-0.011,0.04-0.025,0.074-0.043,0.102c-0.018,0.027-0.046,0.049-0.085,0.064
			c-0.039,0.017-0.095,0.027-0.167,0.033c-0.072,0.006-0.167,0.009-0.283,0.009c-0.125,0-0.222-0.005-0.293-0.014
			c-0.07-0.009-0.119-0.029-0.146-0.062s-0.037-0.08-0.028-0.141c0.008-0.061,0.028-0.142,0.061-0.242l1.624-4.971
			c0.016-0.05,0.035-0.089,0.057-0.119c0.022-0.03,0.057-0.054,0.104-0.069c0.047-0.017,0.113-0.026,0.197-0.03
			c0.084-0.005,0.195-0.007,0.334-0.007c0.16,0,0.288,0.002,0.382,0.007c0.095,0.004,0.169,0.014,0.222,0.03
			c0.053,0.016,0.091,0.039,0.114,0.071c0.023,0.031,0.043,0.075,0.059,0.13L19.437,28.4z M17.019,24.292h-0.004l-0.745,2.381h1.494
			L17.019,24.292z"/>
		<path fill="#000DCC" d="M24.516,28.427c0,0.066-0.011,0.126-0.032,0.178c-0.022,0.052-0.051,0.095-0.087,0.13
			c-0.037,0.034-0.08,0.06-0.131,0.075c-0.051,0.017-0.102,0.024-0.152,0.024h-0.456c-0.095,0-0.177-0.01-0.247-0.03
			c-0.068-0.021-0.133-0.058-0.19-0.11c-0.059-0.054-0.114-0.126-0.169-0.217s-0.115-0.208-0.184-0.353l-1.311-2.62
			C21.48,25.349,21.403,25.18,21.324,25c-0.078-0.181-0.148-0.356-0.211-0.526h-0.008c0.01,0.208,0.019,0.415,0.023,0.621
			c0.006,0.207,0.009,0.42,0.009,0.639v2.932c0,0.029-0.007,0.055-0.022,0.078c-0.016,0.022-0.041,0.042-0.077,0.059
			c-0.036,0.016-0.086,0.027-0.149,0.036c-0.062,0.009-0.142,0.014-0.24,0.014c-0.095,0-0.174-0.005-0.236-0.014
			s-0.111-0.021-0.146-0.036c-0.035-0.017-0.06-0.036-0.073-0.059c-0.014-0.023-0.021-0.049-0.021-0.078v-5.036
			c0-0.136,0.038-0.237,0.112-0.305c0.074-0.068,0.166-0.102,0.274-0.102h0.574c0.103,0,0.189,0.009,0.261,0.027
			c0.07,0.02,0.133,0.05,0.189,0.094c0.055,0.043,0.107,0.103,0.156,0.18c0.049,0.076,0.099,0.171,0.15,0.283l1.025,2.048
			c0.061,0.124,0.119,0.246,0.178,0.366s0.114,0.239,0.168,0.359c0.055,0.12,0.107,0.237,0.159,0.353
			c0.052,0.116,0.103,0.231,0.151,0.347h0.004c-0.009-0.202-0.015-0.413-0.02-0.632c-0.004-0.22-0.006-0.429-0.006-0.628v-2.628
			c0-0.029,0.009-0.056,0.025-0.078c0.016-0.023,0.043-0.044,0.081-0.061c0.038-0.018,0.088-0.03,0.15-0.037s0.143-0.011,0.24-0.011
			c0.093,0,0.169,0.004,0.231,0.011s0.111,0.02,0.145,0.037c0.034,0.017,0.059,0.037,0.072,0.061c0.014,0.022,0.02,0.049,0.02,0.078
			V28.427z"/>
		<path fill="#000DCC" d="M29.889,24.093c0,0.084-0.004,0.155-0.011,0.216c-0.007,0.062-0.016,0.109-0.028,0.146
			c-0.012,0.036-0.027,0.062-0.045,0.076c-0.018,0.014-0.038,0.021-0.062,0.021c-0.035,0-0.093-0.026-0.171-0.078
			c-0.079-0.052-0.184-0.108-0.313-0.169c-0.131-0.061-0.286-0.117-0.466-0.169c-0.181-0.052-0.391-0.078-0.629-0.078
			c-0.255,0-0.486,0.047-0.692,0.141c-0.206,0.095-0.383,0.228-0.529,0.398c-0.146,0.172-0.259,0.379-0.338,0.619
			c-0.078,0.241-0.117,0.508-0.117,0.799c0,0.321,0.04,0.603,0.12,0.847c0.079,0.244,0.191,0.448,0.335,0.613
			c0.145,0.164,0.317,0.288,0.52,0.372s0.425,0.126,0.669,0.126c0.12,0,0.237-0.015,0.354-0.044c0.116-0.028,0.226-0.072,0.325-0.13
			V26.5h-0.997c-0.049,0-0.087-0.032-0.113-0.098c-0.027-0.064-0.041-0.175-0.041-0.331c0-0.081,0.003-0.148,0.01-0.203
			s0.018-0.1,0.031-0.133c0.013-0.033,0.029-0.058,0.049-0.073c0.019-0.016,0.04-0.023,0.064-0.023h1.779
			c0.043,0,0.082,0.008,0.115,0.023c0.034,0.016,0.064,0.04,0.09,0.071c0.025,0.032,0.046,0.07,0.06,0.115
			c0.013,0.045,0.02,0.096,0.02,0.153v2.23c0,0.086-0.014,0.162-0.042,0.227c-0.029,0.065-0.087,0.116-0.176,0.154
			c-0.088,0.037-0.197,0.076-0.327,0.116c-0.13,0.041-0.266,0.075-0.405,0.104c-0.14,0.028-0.28,0.051-0.423,0.064
			c-0.143,0.015-0.286,0.022-0.43,0.022c-0.421,0-0.797-0.064-1.13-0.193c-0.332-0.128-0.613-0.314-0.844-0.559
			c-0.231-0.243-0.407-0.541-0.529-0.892s-0.184-0.748-0.184-1.193c0-0.459,0.065-0.871,0.195-1.236
			c0.131-0.364,0.315-0.675,0.554-0.931c0.239-0.255,0.527-0.451,0.865-0.587c0.338-0.135,0.714-0.203,1.129-0.203
			c0.229,0,0.436,0.017,0.623,0.05s0.351,0.073,0.49,0.121s0.256,0.099,0.349,0.154c0.092,0.055,0.156,0.103,0.193,0.143
			c0.036,0.04,0.062,0.098,0.079,0.171S29.889,23.948,29.889,24.093z"/>
	</g>
</g>
<g>
	<circle fill="none" stroke="#FF700A" stroke-miterlimit="10" cx="-24.297" cy="15.341" r="15"/>
	<path fill="none" stroke="#FF700A" stroke-linecap="round" stroke-miterlimit="10" d="M-33.937,14.76l8.875-4.911
		c0,0,0.765-0.415,1.417-0.065l7.216,4.067c0,0,5.311,2.649,1.585,2.649c-0.871,0-19.116,0-19.116,0S-36.486,16.186-33.937,14.76z"
		/>
	<path fill="none" stroke="#FF700A" stroke-linecap="round" stroke-miterlimit="10" d="M-24.379,9.014
		c0-0.369-0.087-0.776,0.018-1.129c0.06-0.202,0.25-0.34,0.376-0.507c0.093-0.125,0.126-0.144,0.229-0.209l0.04-0.04
		c1.237-0.762,0.821-2.786-0.698-2.974c-1.615-0.199-2.591,1.829-1.425,2.844"/>
	<text transform="matrix(0.94 0 0 1 -34.8535 23.8252)" fill="#FF700A" font-family="'Calibri-Bold'" font-size="8.8677">HANG</text>
</g>
</svg>
