<?xml version="1.0" encoding="utf-8"?>
<!-- Generator: Adobe Illustrator 16.0.0, SVG Export Plug-In . SVG Version: 6.00 Build 0)  -->
<!DOCTYPE svg PUBLIC "-//W3C//DTD SVG 1.1//EN" "http://www.w3.org/Graphics/SVG/1.1/DTD/svg11.dtd">
<svg version="1.1" id="Layer_1" xmlns="http://www.w3.org/2000/svg" xmlns:xlink="http://www.w3.org/1999/xlink" x="0px" y="0px"
	 width="30px" height="30px" viewBox="0 0 30 30" enable-background="new 0 0 30 30" xml:space="preserve">
<g>
	<circle fill="none" stroke="#333333" stroke-linecap="round" stroke-miterlimit="10" cx="15" cy="11.759" r="4.52"/>
	<g>
		<path fill="none" stroke="#333333" stroke-miterlimit="10" d="M27.5,15c0-6.904-5.597-12.5-12.5-12.5C8.096,2.5,2.5,8.096,2.5,15
			c0,4.104,2.066,7.735,5.121,10.014C7.504,24.598,7.5,24.168,7.5,23.713v-0.426c0-2.645,1.982-4.787,4.627-4.787h6.426
			c2.645,0,4.947,2.143,4.947,4.787v0.426c0,0.219-0.116,0.428-0.145,0.638C25.941,22.061,27.5,18.726,27.5,15z"/>
		<path fill="none" stroke="#333333" stroke-miterlimit="10" d="M23.5,23.287c0-2.645-2.303-4.787-4.947-4.787h-6.426
			c-2.645,0-4.627,2.143-4.627,4.787v0.426c0,0.455,0.004,0.885,0.121,1.301C9.705,26.568,12.24,27.5,15.04,27.5
			c3.178,0,6.13-1.195,8.335-3.149c0.029-0.21,0.125-0.419,0.125-0.638V23.287z"/>
	</g>
</g>
</svg>
