<?xml version="1.0" encoding="utf-8"?>
<!-- Generator: Adobe Illustrator 16.0.0, SVG Export Plug-In . SVG Version: 6.00 Build 0)  -->
<!DOCTYPE svg PUBLIC "-//W3C//DTD SVG 1.1//EN" "http://www.w3.org/Graphics/SVG/1.1/DTD/svg11.dtd">
<svg version="1.1" id="Layer_1" xmlns="http://www.w3.org/2000/svg" xmlns:xlink="http://www.w3.org/1999/xlink" x="0px" y="0px"
	 width="30px" height="30px" viewBox="0 0 30 30" enable-background="new 0 0 30 30" xml:space="preserve">
<g>
	<path fill="none" stroke="#333333" stroke-linecap="round" stroke-linejoin="round" stroke-miterlimit="10" d="M7,37.5
		C0.097,37.5-5.499,43.098-5.499,50c0,2.411,0.695,4.655,1.877,6.563l-0.683,2.625l-0.731,2.81l2.82-0.741l2.596-0.669
		C2.301,61.792,4.565,62.5,7,62.5c6.903,0,12.499-5.598,12.499-12.5S13.903,37.5,7,37.5z"/>
	<g>
		
			<circle fill="none" stroke="#333333" stroke-linecap="round" stroke-linejoin="round" stroke-miterlimit="10" cx="2.627" cy="46.828" r="1.707"/>
		
			<circle fill="none" stroke="#333333" stroke-linecap="round" stroke-linejoin="round" stroke-miterlimit="10" cx="11.425" cy="46.828" r="1.707"/>
	</g>
	<g>
		<path fill="none" stroke="#333333" stroke-linecap="round" stroke-linejoin="round" stroke-miterlimit="10" d="M2.07,53.146
			c0,1.805,2.217,3.069,4.956,3.069s4.957-1.168,4.957-2.971c0-0.365-0.112-0.745-0.279-0.745H2.349
			C2.182,52.5,2.07,52.781,2.07,53.146z"/>
	</g>
</g>
<g>
	<path fill="none" stroke="#333333" stroke-linecap="round" stroke-linejoin="round" stroke-miterlimit="10" d="M26.877,23.701
		c0.396-0.63,0.623-1.448,0.623-2.395V9.253c0-0.875-0.193-1.576-0.534-2.111l-8.323,8.324L26.877,23.701z"/>
	<path fill="none" stroke="#333333" stroke-linecap="round" stroke-linejoin="round" stroke-miterlimit="10" d="M3.156,7.265
		C2.751,7.783,2.5,8.449,2.5,9.253v12.053c0,0.873,0.303,1.637,0.771,2.246l8.086-8.087L3.156,7.265z"/>
	<path fill="none" stroke="#333333" stroke-linecap="round" stroke-linejoin="round" stroke-miterlimit="10" d="M5.99,24.5h18.666
		c0.972,0,1.729-0.25,2.221-1.032l-8.234-8.118l-2.229,2.286c-0.781,0.78-2.047,0.81-2.828,0.028l-2.229-2.213l-8.086,7.861
		C3.941,24.184,4.957,24.5,5.99,24.5z"/>
	<path fill="none" stroke="#333333" stroke-linecap="round" stroke-linejoin="round" stroke-miterlimit="10" d="M18.643,15.466
		l8.323-8.557C26.48,6.146,25.688,5.5,24.656,5.5H5.99c-1.089,0-2.17,0.684-2.834,1.532l8.201,8.318"/>
	<path fill="none" stroke="#333333" stroke-linecap="round" stroke-linejoin="round" stroke-miterlimit="10" d="M11.357,15.466
		l2.229,2.228c0.781,0.781,2.047,0.781,2.828,0l2.229-2.228"/>
</g>
</svg>
