<?xml version="1.0" encoding="utf-8"?>
<!-- Generator: Adobe Illustrator 16.0.0, SVG Export Plug-In . SVG Version: 6.00 Build 0)  -->
<!DOCTYPE svg PUBLIC "-//W3C//DTD SVG 1.1//EN" "http://www.w3.org/Graphics/SVG/1.1/DTD/svg11.dtd">
<svg version="1.1" id="Layer_1" xmlns="http://www.w3.org/2000/svg" xmlns:xlink="http://www.w3.org/1999/xlink" x="0px" y="0px"
	 width="30px" height="30px" viewBox="0 0 30 30" enable-background="new 0 0 30 30" xml:space="preserve">
<g>
	<path fill="#5BE8CD" stroke="#3AC9AD" stroke-linecap="round" stroke-linejoin="round" stroke-miterlimit="10" d="M15,2.5
		C8.097,2.5,2.501,8.097,2.501,15c0,2.411,0.695,4.654,1.877,6.562l-0.683,2.625l-0.731,2.811l2.82-0.741l2.596-0.669
		C10.301,26.792,12.565,27.5,15,27.5c6.902,0,12.499-5.598,12.499-12.5C27.499,8.097,21.902,2.5,15,2.5z"/>
	<g>
		<g>
			<circle fill="#FFFFFF" cx="10.627" cy="11.828" r="2.207"/>
			<path fill="#3AC9AD" d="M10.627,10.121c0.943,0,1.707,0.764,1.707,1.707c0,0.942-0.764,1.707-1.707,1.707
				S8.92,12.771,8.92,11.828C8.92,10.885,9.684,10.121,10.627,10.121 M10.627,9.121c-1.493,0-2.707,1.214-2.707,2.707
				s1.214,2.707,2.707,2.707s2.707-1.214,2.707-2.707S12.12,9.121,10.627,9.121L10.627,9.121z"/>
		</g>
		<g>
			<circle fill="#FFFFFF" cx="19.425" cy="11.828" r="2.207"/>
			<path fill="#3AC9AD" d="M19.425,10.121c0.942,0,1.707,0.764,1.707,1.707c0,0.942-0.765,1.707-1.707,1.707
				s-1.707-0.765-1.707-1.707C17.718,10.885,18.482,10.121,19.425,10.121 M19.425,9.121c-1.492,0-2.707,1.214-2.707,2.707
				s1.215,2.707,2.707,2.707s2.707-1.214,2.707-2.707S20.917,9.121,19.425,9.121L19.425,9.121z"/>
		</g>
	</g>
	<g>
		<g>
			<path fill="#FFFFFF" d="M15.026,21.714c-3.11,0-5.456-1.533-5.456-3.567c0-0.841,0.417-1.145,0.774-1.148h9.361
				c0.473,0,0.777,0.488,0.777,1.245C20.482,20.254,18.188,21.714,15.026,21.714z"/>
			<path fill="#3AC9AD" d="M19.705,17.498c0.167,0,0.277,0.38,0.277,0.745c0,1.803-2.217,2.971-4.957,2.971
				c-2.739,0-4.956-1.263-4.956-3.067c0-0.365,0.112-0.646,0.28-0.648H19.705 M19.705,16.498H10.35
				c-0.643,0.008-1.28,0.52-1.28,1.648c0,2.356,2.505,4.067,5.956,4.067c3.507,0,5.957-1.633,5.957-3.971
				C20.982,17.038,20.341,16.498,19.705,16.498L19.705,16.498z"/>
		</g>
	</g>
</g>
</svg>
