<?xml version="1.0" encoding="utf-8"?>
<!-- Generator: Adobe Illustrator 16.0.0, SVG Export Plug-In . SVG Version: 6.00 Build 0)  -->
<!DOCTYPE svg PUBLIC "-//W3C//DTD SVG 1.1//EN" "http://www.w3.org/Graphics/SVG/1.1/DTD/svg11.dtd">
<svg version="1.1" id="Layer_1" xmlns="http://www.w3.org/2000/svg" xmlns:xlink="http://www.w3.org/1999/xlink" x="0px" y="0px"
	 width="30px" height="30px" viewBox="0 0 30 30" enable-background="new 0 0 30 30" xml:space="preserve">
<g>
	<path fill="none" stroke="#333333" stroke-linecap="round" stroke-linejoin="round" stroke-miterlimit="10" d="M15,2.5
		C8.097,2.5,2.501,8.097,2.501,15c0,2.411,0.695,4.655,1.877,6.563l-0.683,2.625l-0.731,2.81l2.82-0.741l2.596-0.669
		C10.301,26.792,12.565,27.5,15,27.5c6.903,0,12.499-5.598,12.499-12.5C27.499,8.097,21.903,2.5,15,2.5z"/>
	<g>
		
			<circle fill="none" stroke="#333333" stroke-linecap="round" stroke-linejoin="round" stroke-miterlimit="10" cx="10.627" cy="11.828" r="1.707"/>
		
			<circle fill="none" stroke="#333333" stroke-linecap="round" stroke-linejoin="round" stroke-miterlimit="10" cx="19.425" cy="11.828" r="1.707"/>
	</g>
	<g>
		<path fill="none" stroke="#333333" stroke-linecap="round" stroke-linejoin="round" stroke-miterlimit="10" d="M10.07,18.146
			c0,1.805,2.217,3.069,4.956,3.069s4.957-1.168,4.957-2.971c0-0.365-0.112-0.745-0.279-0.745h-9.354
			C10.182,17.5,10.07,17.781,10.07,18.146z"/>
	</g>
</g>
</svg>
