<?xml version="1.0" encoding="utf-8"?>
<!-- Generator: Adobe Illustrator 16.0.0, SVG Export Plug-In . SVG Version: 6.00 Build 0)  -->
<!DOCTYPE svg PUBLIC "-//W3C//DTD SVG 1.1//EN" "http://www.w3.org/Graphics/SVG/1.1/DTD/svg11.dtd">
<svg version="1.1" id="Layer_1" xmlns="http://www.w3.org/2000/svg" xmlns:xlink="http://www.w3.org/1999/xlink" x="0px" y="0px"
	 width="100px" height="100px" viewBox="0 0 100 100" enable-background="new 0 0 100 100" xml:space="preserve">
<g>
	<g>
		<polygon fill="#FFFFFF" stroke="#FFFFFF" stroke-width="2" stroke-linejoin="round" stroke-miterlimit="10" points="86.5,72.134 
			77.5,70.707 77.5,32.595 86.5,31.16 		"/>
		
			<rect x="88.006" y="31.161" fill="none" stroke="#FFFFFF" stroke-width="2" stroke-miterlimit="10" width="2.876" height="40.972"/>
		<polygon fill="#FFFFFF" stroke="#FFFFFF" stroke-miterlimit="10" points="81,50 76.609,50 75.694,43 81,43 		"/>
		<polygon fill="#FFFFFF" stroke="#FFFFFF" stroke-miterlimit="10" points="81,60 75.436,60 76.609,54 81,54 		"/>
	</g>
	<g>
		<path fill="#FFFFFF" d="M17.996,49.956c0-17.771,12.875-32.176,28.758-32.176c0.26,0,0.518,0.015,0.776,0.023l-0.002-0.433
			l-2.737-0.325c-0.352,0-6.132,0.655-6.486,0.679C21.727,18.852,9.089,32.157,9.089,49.928c0,17.17,11.253,31.224,26.699,32.155
			l3.078,0.291l7.386,0.581l0.443-0.824C30.84,82.095,17.996,67.705,17.996,49.956z"/>
		
			<ellipse fill="none" stroke="#FFFFFF" stroke-width="3" stroke-miterlimit="10" cx="47.305" cy="49.956" rx="28.758" ry="32.176"/>
		
			<ellipse fill="none" stroke="#FFFFFF" stroke-width="3" stroke-miterlimit="10" cx="47.306" cy="49.956" rx="25.028" ry="28.002"/>
	</g>
	<g>
		<path fill="#FFFFFF" d="M48.003,42.405c-0.009,0.044-0.03,0.083-0.064,0.118c-0.034,0.034-0.086,0.062-0.158,0.084
			c-0.072,0.022-0.163,0.039-0.272,0.05c-0.111,0.011-0.249,0.017-0.415,0.017c-0.161,0-0.295-0.006-0.404-0.017
			c-0.107-0.011-0.191-0.028-0.249-0.05c-0.058-0.023-0.098-0.051-0.118-0.084c-0.021-0.034-0.024-0.073-0.01-0.118l0.721-3.602
			c0.017-0.104,0.034-0.206,0.047-0.307c0.013-0.102,0.02-0.204,0.02-0.307c0-0.211-0.039-0.381-0.117-0.512
			c-0.079-0.13-0.219-0.194-0.421-0.194c-0.179,0-0.366,0.058-0.559,0.174c-0.193,0.117-0.378,0.275-0.556,0.475
			c-0.178,0.2-0.334,0.433-0.471,0.7c-0.138,0.268-0.235,0.552-0.293,0.852l-0.545,2.721c-0.009,0.044-0.03,0.083-0.064,0.118
			c-0.034,0.034-0.086,0.062-0.158,0.084c-0.072,0.022-0.163,0.039-0.273,0.05c-0.11,0.011-0.249,0.017-0.414,0.017
			c-0.162,0-0.295-0.006-0.401-0.017c-0.105-0.011-0.188-0.028-0.246-0.05c-0.059-0.023-0.097-0.051-0.118-0.084
			c-0.02-0.034-0.026-0.073-0.017-0.118l0.714-3.602c0.027-0.104,0.046-0.21,0.057-0.32c0.012-0.11,0.017-0.216,0.017-0.32
			c0-0.198-0.04-0.36-0.121-0.488s-0.22-0.191-0.417-0.191c-0.18,0-0.367,0.058-0.559,0.174c-0.193,0.117-0.378,0.275-0.556,0.475
			c-0.177,0.2-0.334,0.433-0.471,0.7c-0.137,0.268-0.235,0.552-0.293,0.852l-0.545,2.721c-0.009,0.044-0.031,0.083-0.064,0.118
			c-0.034,0.034-0.085,0.062-0.155,0.084c-0.069,0.022-0.16,0.039-0.272,0.05c-0.112,0.011-0.249,0.017-0.411,0.017
			c-0.166,0-0.302-0.006-0.407-0.017c-0.105-0.011-0.189-0.028-0.249-0.05c-0.061-0.023-0.1-0.051-0.118-0.084
			c-0.019-0.034-0.023-0.073-0.014-0.118l1.206-6.014c0.009-0.044,0.028-0.084,0.058-0.117c0.029-0.034,0.073-0.061,0.135-0.081
			c0.06-0.021,0.139-0.036,0.235-0.047c0.097-0.011,0.212-0.017,0.347-0.017c0.139,0,0.253,0.006,0.34,0.017
			c0.088,0.011,0.156,0.027,0.206,0.047c0.049,0.02,0.081,0.047,0.098,0.081c0.016,0.033,0.019,0.073,0.01,0.117l-0.196,0.99
			c0.095-0.157,0.22-0.317,0.377-0.481c0.157-0.164,0.335-0.311,0.535-0.441c0.2-0.13,0.417-0.237,0.653-0.32
			c0.236-0.083,0.48-0.125,0.731-0.125c0.26,0,0.486,0.035,0.677,0.104c0.19,0.07,0.348,0.166,0.471,0.29
			c0.123,0.123,0.218,0.268,0.283,0.434c0.064,0.166,0.106,0.346,0.124,0.539c0.104-0.161,0.235-0.324,0.395-0.485
			c0.159-0.162,0.339-0.308,0.539-0.438c0.2-0.13,0.416-0.237,0.649-0.32c0.234-0.083,0.474-0.125,0.721-0.125
			c0.314,0,0.578,0.044,0.792,0.131c0.213,0.088,0.384,0.209,0.515,0.364c0.13,0.155,0.225,0.336,0.283,0.545
			c0.058,0.208,0.087,0.435,0.087,0.677c0,0.157-0.009,0.315-0.027,0.475c-0.018,0.159-0.045,0.321-0.081,0.488L48.003,42.405z"/>
		<path fill="#FFFFFF" d="M55.902,36.378c0,0.059-0.006,0.124-0.02,0.195c-0.015,0.072-0.033,0.146-0.061,0.222
			c-0.153,0.413-0.317,0.84-0.496,1.28c-0.177,0.439-0.38,0.893-0.608,1.36c-0.229,0.467-0.49,0.95-0.781,1.448
			c-0.292,0.499-0.627,1.015-1.005,1.548l-1.642,2.331c-0.04,0.058-0.091,0.106-0.15,0.145c-0.062,0.038-0.139,0.07-0.23,0.094
			s-0.202,0.043-0.333,0.058c-0.13,0.013-0.281,0.02-0.452,0.02c-0.193,0-0.349-0.007-0.467-0.023
			c-0.119-0.016-0.207-0.042-0.26-0.078c-0.054-0.036-0.079-0.081-0.074-0.134c0.005-0.055,0.036-0.12,0.095-0.195l1.529-2.014
			l-0.991-5.777c-0.009-0.059-0.018-0.119-0.027-0.182c-0.009-0.063-0.014-0.117-0.014-0.162c0-0.08,0.015-0.146,0.044-0.195
			c0.029-0.049,0.078-0.088,0.148-0.115c0.069-0.027,0.162-0.046,0.279-0.057c0.116-0.011,0.258-0.017,0.425-0.017
			c0.183,0,0.328,0.004,0.434,0.011c0.106,0.006,0.186,0.021,0.239,0.043c0.054,0.023,0.091,0.057,0.111,0.101
			c0.021,0.045,0.034,0.101,0.043,0.168l0.62,4.209h0.014c0.224-0.338,0.429-0.679,0.612-1.023c0.185-0.346,0.353-0.697,0.504-1.055
			c0.153-0.356,0.294-0.718,0.421-1.084c0.129-0.366,0.247-0.735,0.354-1.108c0.009-0.044,0.029-0.084,0.061-0.117
			c0.031-0.034,0.085-0.061,0.158-0.081c0.075-0.021,0.172-0.036,0.293-0.047c0.122-0.011,0.278-0.017,0.472-0.017
			c0.286,0,0.484,0.018,0.593,0.054C55.85,36.22,55.902,36.284,55.902,36.378z"/>
		<path fill="#FFFFFF" d="M34.262,49.344c0,0.166-0.028,0.389-0.084,0.667c-0.057,0.278-0.127,0.503-0.213,0.671
			s-0.182,0.254-0.289,0.254c-0.077,0-0.169-0.05-0.276-0.146c-0.106-0.099-0.246-0.204-0.417-0.316
			c-0.172-0.114-0.391-0.218-0.658-0.316c-0.266-0.098-0.598-0.146-0.995-0.146c-0.439,0-0.838,0.087-1.2,0.262
			c-0.361,0.174-0.684,0.405-0.969,0.694c-0.285,0.287-0.534,0.616-0.747,0.989c-0.213,0.375-0.39,0.763-0.529,1.165
			c-0.139,0.403-0.243,0.805-0.311,1.204c-0.068,0.4-0.103,0.773-0.103,1.115c0,0.416,0.052,0.78,0.156,1.095
			c0.104,0.313,0.253,0.574,0.449,0.782c0.195,0.207,0.436,0.362,0.72,0.466c0.284,0.104,0.604,0.156,0.96,0.156
			c0.42,0,0.78-0.045,1.08-0.134c0.299-0.09,0.554-0.187,0.764-0.293s0.385-0.205,0.524-0.295c0.139-0.087,0.265-0.132,0.378-0.132
			c0.077,0,0.129,0.028,0.155,0.085c0.027,0.055,0.041,0.134,0.041,0.235c0,0.04-0.006,0.104-0.018,0.187s-0.027,0.177-0.044,0.279
			c-0.018,0.104-0.039,0.217-0.062,0.338c-0.023,0.122-0.05,0.235-0.08,0.338c-0.03,0.104-0.064,0.199-0.103,0.285
			c-0.039,0.086-0.09,0.16-0.155,0.227c-0.065,0.064-0.193,0.148-0.382,0.252c-0.19,0.105-0.421,0.201-0.694,0.29
			c-0.272,0.088-0.581,0.164-0.924,0.227c-0.344,0.062-0.711,0.093-1.102,0.093c-0.646,0-1.229-0.085-1.747-0.258
			c-0.519-0.171-0.958-0.432-1.32-0.783c-0.361-0.349-0.64-0.786-0.835-1.314c-0.196-0.527-0.293-1.143-0.293-1.85
			c0-0.55,0.056-1.124,0.168-1.719c0.112-0.596,0.283-1.178,0.511-1.747c0.228-0.568,0.517-1.108,0.867-1.617
			c0.35-0.509,0.763-0.956,1.24-1.338s1.019-0.686,1.626-0.91c0.607-0.226,1.282-0.339,2.022-0.339c0.416,0,0.808,0.043,1.178,0.129
			c0.371,0.086,0.693,0.2,0.969,0.343c0.275,0.142,0.468,0.271,0.578,0.386C34.207,49.02,34.262,49.166,34.262,49.344z"/>
		<path fill="#FFFFFF" d="M36.11,59.433c-0.012,0.06-0.04,0.111-0.084,0.155c-0.045,0.044-0.112,0.082-0.2,0.11
			c-0.089,0.03-0.208,0.052-0.355,0.067c-0.148,0.015-0.329,0.022-0.542,0.022c-0.225,0-0.407-0.008-0.546-0.022
			c-0.139-0.016-0.248-0.037-0.325-0.067c-0.077-0.028-0.129-0.066-0.156-0.11c-0.026-0.044-0.034-0.096-0.022-0.155l2.338-11.688
			c0.012-0.06,0.039-0.113,0.08-0.161c0.042-0.047,0.109-0.087,0.205-0.12c0.094-0.033,0.214-0.058,0.36-0.075
			c0.145-0.019,0.327-0.027,0.546-0.027s0.398,0.008,0.538,0.027c0.14,0.017,0.247,0.042,0.325,0.075
			c0.077,0.032,0.127,0.073,0.151,0.12c0.023,0.048,0.029,0.102,0.018,0.161L36.11,59.433z"/>
		<path fill="#FFFFFF" d="M47.097,54.17c0,0.427-0.04,0.866-0.12,1.316c-0.08,0.451-0.206,0.89-0.377,1.32
			c-0.172,0.429-0.393,0.833-0.662,1.208c-0.27,0.376-0.593,0.708-0.969,0.995c-0.376,0.288-0.807,0.515-1.293,0.68
			c-0.486,0.167-1.034,0.25-1.645,0.25c-0.599,0-1.115-0.07-1.551-0.209c-0.435-0.14-0.798-0.345-1.088-0.613
			c-0.29-0.27-0.507-0.602-0.649-0.996c-0.143-0.394-0.213-0.846-0.213-1.355c0-0.427,0.04-0.865,0.12-1.315
			c0.08-0.449,0.206-0.889,0.377-1.314c0.172-0.427,0.393-0.832,0.662-1.215c0.27-0.382,0.593-0.715,0.969-1
			c0.376-0.284,0.807-0.509,1.293-0.676c0.486-0.164,1.034-0.249,1.644-0.249c0.599,0,1.116,0.07,1.551,0.21
			s0.799,0.344,1.089,0.614c0.291,0.269,0.507,0.6,0.649,0.995C47.026,53.208,47.097,53.66,47.097,54.17z M44.786,54.321
			c0-0.249-0.026-0.47-0.076-0.663c-0.05-0.191-0.133-0.354-0.249-0.487c-0.116-0.134-0.264-0.236-0.444-0.308
			c-0.181-0.07-0.402-0.105-0.662-0.105c-0.296,0-0.563,0.058-0.8,0.173c-0.237,0.114-0.449,0.271-0.635,0.467
			c-0.187,0.194-0.349,0.422-0.484,0.68c-0.136,0.258-0.249,0.529-0.338,0.813c-0.088,0.283-0.154,0.573-0.195,0.865
			c-0.041,0.296-0.062,0.573-0.062,0.841c0,0.249,0.024,0.471,0.075,0.667c0.05,0.195,0.133,0.36,0.249,0.493
			c0.116,0.133,0.264,0.235,0.444,0.307c0.181,0.071,0.402,0.106,0.663,0.106c0.296,0,0.563-0.058,0.799-0.174
			c0.238-0.115,0.449-0.272,0.636-0.471c0.187-0.197,0.348-0.427,0.484-0.684c0.136-0.258,0.249-0.53,0.338-0.818
			c0.088-0.287,0.154-0.576,0.195-0.866C44.765,54.866,44.786,54.587,44.786,54.321z"/>
		<path fill="#FFFFFF" d="M54.482,51.85c0,0.071-0.01,0.177-0.03,0.315c-0.021,0.141-0.053,0.281-0.094,0.423
			c-0.042,0.143-0.09,0.265-0.146,0.37c-0.057,0.103-0.12,0.155-0.191,0.155c-0.076,0-0.167-0.028-0.27-0.084
			c-0.105-0.058-0.23-0.119-0.379-0.188c-0.147-0.068-0.321-0.129-0.52-0.183c-0.199-0.053-0.433-0.08-0.698-0.08
			c-0.207,0-0.394,0.027-0.556,0.08c-0.162,0.054-0.298,0.126-0.404,0.218c-0.106,0.093-0.188,0.199-0.245,0.324
			c-0.055,0.125-0.083,0.259-0.083,0.4c0,0.183,0.076,0.338,0.227,0.463c0.15,0.124,0.339,0.241,0.563,0.351
			c0.226,0.108,0.468,0.223,0.729,0.342c0.262,0.119,0.504,0.267,0.729,0.445c0.227,0.178,0.412,0.394,0.561,0.648
			c0.147,0.255,0.222,0.575,0.222,0.96c0,0.45-0.086,0.866-0.257,1.248c-0.173,0.383-0.423,0.713-0.752,0.991
			c-0.328,0.279-0.729,0.496-1.2,0.652c-0.47,0.158-1.002,0.237-1.595,0.237c-0.284,0-0.556-0.021-0.813-0.062
			c-0.257-0.041-0.489-0.092-0.693-0.15c-0.204-0.061-0.377-0.128-0.52-0.206c-0.142-0.075-0.249-0.146-0.32-0.214
			c-0.047-0.046-0.082-0.097-0.102-0.15c-0.021-0.053-0.032-0.121-0.032-0.204c0-0.053,0.005-0.12,0.014-0.204
			c0.008-0.082,0.023-0.176,0.043-0.275c0.021-0.102,0.045-0.202,0.072-0.303s0.058-0.191,0.093-0.275
			c0.036-0.082,0.074-0.149,0.116-0.2s0.086-0.075,0.133-0.075c0.083,0,0.175,0.036,0.275,0.106
			c0.101,0.071,0.231,0.149,0.392,0.235c0.159,0.086,0.356,0.166,0.591,0.24c0.234,0.074,0.526,0.11,0.875,0.11
			c0.243,0,0.455-0.027,0.636-0.084c0.18-0.056,0.33-0.134,0.448-0.235c0.119-0.101,0.207-0.216,0.263-0.348
			c0.056-0.128,0.085-0.27,0.085-0.416c0-0.209-0.073-0.376-0.218-0.508c-0.146-0.129-0.328-0.251-0.547-0.364
			c-0.219-0.111-0.458-0.227-0.716-0.346c-0.257-0.118-0.496-0.265-0.715-0.437c-0.219-0.172-0.401-0.385-0.546-0.641
			c-0.146-0.254-0.218-0.573-0.218-0.959c0-0.42,0.08-0.812,0.24-1.173s0.394-0.678,0.702-0.947c0.309-0.27,0.681-0.48,1.12-0.631
			c0.438-0.151,0.936-0.228,1.493-0.228c0.249,0,0.489,0.019,0.725,0.05c0.233,0.032,0.444,0.075,0.632,0.129
			c0.186,0.053,0.35,0.112,0.487,0.178c0.14,0.064,0.239,0.131,0.3,0.195C54.45,51.607,54.482,51.708,54.482,51.85z"/>
		<path fill="#FFFFFF" d="M63.381,53.246c0,0.427-0.097,0.81-0.289,1.15s-0.492,0.636-0.897,0.881
			c-0.406,0.245-0.921,0.434-1.546,0.563c-0.626,0.131-1.372,0.196-2.236,0.196h-0.817c-0.023,0.136-0.042,0.271-0.054,0.404
			c-0.013,0.133-0.019,0.257-0.019,0.369c0,0.479,0.124,0.841,0.374,1.084c0.248,0.244,0.649,0.364,1.2,0.364
			c0.392,0,0.742-0.027,1.054-0.084c0.311-0.057,0.583-0.119,0.816-0.188c0.234-0.067,0.428-0.13,0.582-0.187
			c0.154-0.056,0.268-0.085,0.339-0.085s0.121,0.022,0.151,0.063c0.029,0.042,0.045,0.106,0.045,0.195
			c0,0.101-0.01,0.217-0.028,0.347c-0.017,0.131-0.043,0.26-0.075,0.387c-0.032,0.128-0.074,0.247-0.124,0.359
			c-0.051,0.113-0.109,0.198-0.173,0.259c-0.071,0.071-0.202,0.142-0.392,0.213c-0.189,0.072-0.418,0.136-0.684,0.194
			c-0.268,0.061-0.567,0.11-0.899,0.147c-0.331,0.039-0.669,0.059-1.013,0.059c-0.568,0-1.065-0.06-1.488-0.178
			c-0.424-0.118-0.778-0.301-1.062-0.542c-0.285-0.243-0.498-0.554-0.64-0.929c-0.144-0.378-0.214-0.823-0.214-1.339
			c0-0.396,0.037-0.821,0.11-1.275c0.074-0.453,0.194-0.9,0.36-1.342s0.379-0.864,0.64-1.266c0.262-0.404,0.577-0.759,0.947-1.063
			s0.799-0.55,1.285-0.734c0.484-0.183,1.039-0.275,1.662-0.275c0.539,0,1.003,0.065,1.392,0.191
			c0.387,0.128,0.706,0.297,0.954,0.508c0.25,0.21,0.436,0.45,0.556,0.72C63.32,52.686,63.381,52.961,63.381,53.246z M61.186,53.414
			c0-0.235-0.094-0.433-0.28-0.59c-0.187-0.158-0.458-0.236-0.813-0.236c-0.296,0-0.561,0.055-0.795,0.16
			c-0.234,0.107-0.44,0.25-0.618,0.432c-0.179,0.181-0.33,0.395-0.459,0.64c-0.126,0.246-0.229,0.509-0.306,0.787h0.747
			c0.474,0,0.87-0.031,1.19-0.095c0.319-0.062,0.578-0.146,0.772-0.253c0.197-0.106,0.34-0.232,0.427-0.376
			C61.142,53.736,61.186,53.581,61.186,53.414z"/>
		<path fill="#FFFFFF" d="M70.172,51.583c0,0.061-0.007,0.136-0.018,0.227c-0.013,0.094-0.028,0.192-0.049,0.299
			c-0.021,0.107-0.049,0.213-0.084,0.32c-0.036,0.105-0.076,0.203-0.121,0.289c-0.044,0.086-0.095,0.156-0.15,0.213
			s-0.118,0.084-0.183,0.084h-1.732l-0.748,3.725c-0.017,0.088-0.032,0.194-0.048,0.315c-0.015,0.121-0.023,0.221-0.023,0.298
			c0,0.236,0.057,0.41,0.17,0.52c0.111,0.111,0.29,0.164,0.533,0.164c0.143,0,0.264-0.01,0.363-0.03
			c0.103-0.021,0.19-0.045,0.265-0.07c0.072-0.027,0.137-0.051,0.189-0.071c0.054-0.021,0.104-0.032,0.15-0.032
			c0.049,0,0.088,0.022,0.122,0.067c0.032,0.044,0.048,0.116,0.048,0.218c0,0.111-0.012,0.239-0.036,0.381
			c-0.022,0.143-0.054,0.281-0.093,0.414c-0.038,0.134-0.081,0.255-0.128,0.364c-0.049,0.109-0.098,0.191-0.151,0.244
			c-0.055,0.054-0.134,0.104-0.241,0.151c-0.105,0.049-0.231,0.09-0.377,0.125s-0.301,0.063-0.467,0.084
			c-0.167,0.021-0.332,0.031-0.498,0.031c-0.355,0-0.668-0.037-0.938-0.11c-0.271-0.074-0.496-0.19-0.679-0.352
			c-0.185-0.159-0.323-0.364-0.416-0.613c-0.092-0.249-0.136-0.552-0.136-0.907c0-0.064,0.001-0.14,0.008-0.227
			c0.006-0.086,0.016-0.176,0.031-0.271c0.015-0.094,0.029-0.19,0.045-0.289c0.015-0.096,0.03-0.184,0.048-0.262l0.775-3.866h-0.963
			c-0.075,0-0.132-0.025-0.168-0.075c-0.035-0.051-0.053-0.146-0.053-0.29c0-0.1,0.01-0.231,0.031-0.395
			c0.021-0.162,0.055-0.323,0.103-0.48c0.046-0.156,0.108-0.291,0.187-0.404c0.076-0.112,0.17-0.169,0.275-0.169h0.951l0.355-1.769
			c0.013-0.059,0.04-0.112,0.084-0.159c0.045-0.047,0.113-0.088,0.206-0.12c0.09-0.033,0.209-0.057,0.354-0.071
			s0.328-0.022,0.546-0.022c0.214,0,0.392,0.007,0.534,0.022s0.252,0.039,0.329,0.071c0.077,0.032,0.128,0.073,0.155,0.12
			s0.033,0.101,0.022,0.159l-0.355,1.769h1.715c0.102,0,0.17,0.033,0.206,0.098C70.154,51.365,70.172,51.458,70.172,51.583z"/>
	</g>
</g>
<g>
	<g>
		<polygon fill="#392DAA" stroke="#392DAA" stroke-width="2" stroke-linejoin="round" stroke-miterlimit="10" points="545,766.277 
			529,763.691 529,694.602 545,692 		"/>
		
			<rect x="544.661" y="692.004" transform="matrix(-1 -0.0015 0.0015 -1 1093.4419 1459.1016)" fill="none" stroke="#392DAA" stroke-width="2" stroke-linejoin="round" stroke-miterlimit="10" width="5.213" height="74.274"/>
		<polygon fill="#392DAA" points="534,724 524,724 522.34,711 534,711 		"/>
		<polygon fill="#392DAA" points="534,743 521.873,743 524,730 534,730 		"/>
	</g>
	<g>
		<path fill="#392DAA" d="M417.744,726.074c0-32.215,23.342-58.33,52.134-58.33c0.472,0,0.938,0.025,1.407,0.041L471.281,667
			l-4.963-0.588c-0.638,0-11.116,1.188-11.759,1.229c-30.053,2.045-52.961,26.166-52.961,58.382c0,31.125,20.4,56.604,48.4,58.289
			l5.578,0.53l13.391,1.053l0.804-1.493C441.028,784.337,417.744,758.25,417.744,726.074z"/>
		
			<ellipse fill="none" stroke="#392DAA" stroke-width="3" stroke-miterlimit="10" cx="470.877" cy="726.074" rx="52.133" ry="58.33"/>
		
			<ellipse fill="none" stroke="#392DAA" stroke-width="2" stroke-miterlimit="10" cx="470.878" cy="726.074" rx="45.37" ry="50.764"/>
	</g>
	<text transform="matrix(1 0 0 1 455.3613 715.8008)" fill="#3F3B90" font-family="'Calibri-BoldItalic'" font-size="25">my</text>
	<text transform="matrix(1 0 0 1 429.6484 746.8008)" fill="#3F3B90" font-family="'Calibri-BoldItalic'" font-size="33">Closet</text>
</g>
</svg>
